<?xml version="1.0" encoding="UTF-8"?> <svg xmlns="http://www.w3.org/2000/svg" xmlns:xlink="http://www.w3.org/1999/xlink" width="757px" height="197px" viewBox="0 0 757 197"> <title>3_darabase</title> <defs> <linearGradient x1="100%" y1="11.9986851%" x2="50%" y2="88.0013149%" id="linearGradient-1"> <stop stop-color="#4FA6FD" offset="2.02141608%"></stop> <stop stop-color="#6106F9" offset="97.7737107%"></stop> </linearGradient> <linearGradient x1="100%" y1="5.40123457%" x2="1.88651178e-15%" y2="94.5987654%" id="linearGradient-2"> <stop stop-color="#00DAC7" offset="0%"></stop> <stop stop-color="#209FF4" offset="47.9792586%"></stop> <stop stop-color="#7D65FD" offset="100%"></stop> </linearGradient> <linearGradient x1="100%" y1="6.37604154%" x2="7.69360582%" y2="93.6239585%" id="linearGradient-3"> <stop stop-color="#3E34FF" offset="0%"></stop> <stop stop-color="#00BDE8" offset="100%"></stop> </linearGradient> </defs> <g id="3_darabase" stroke="none" stroke-width="1" fill="none" fill-rule="evenodd"> <path d="M97.1024586,141.477293 C98.7817738,141.477293 100.142815,142.840789 100.142815,144.517972 C100.142815,146.139289 98.877255,147.465035 97.2811198,147.557663 L97.1024586,147.562833 L19.2849041,147.562833 C12.1104531,147.562833 6.25436503,153.30506 6.0885124,160.431204 L6.08490026,160.741895 L6.08490026,177.735398 C6.08490026,184.90074 11.8384962,190.749393 18.9738155,190.915035 L19.2849041,190.918643 L158.709456,190.918643 C165.883907,190.918643 171.735926,185.172352 171.901663,178.046092 L171.905272,177.735398 L171.905272,172.908792 C171.905272,171.227426 173.266313,169.868113 174.954004,169.868113 C176.577382,169.868113 177.90092,171.132066 177.993387,172.729925 L177.998548,172.908792 L177.998548,177.735398 C177.998548,188.241798 169.529622,196.815836 159.048255,196.997073 L158.709456,197 L19.2849041,197 C8.76100537,197 0.184221832,188.537732 0.00292810084,178.073636 L0,177.735398 L0,160.741895 C0,150.231358 8.46482717,141.66137 18.9461069,141.480219 L19.2849041,141.477293 L97.1024586,141.477293 Z M97.0647682,167.082567 C97.6426872,167.659752 97.9777126,168.420968 97.9777126,169.240738 C97.9777126,170.031231 97.6426872,170.821724 97.0940829,171.403091 C96.5119762,171.950999 95.7204785,172.285599 94.9289808,172.285599 C94.1374831,172.285599 93.3459854,171.950999 92.7680665,171.403091 C92.1943353,170.821724 91.8844368,170.031231 91.8844368,169.240738 C91.8844368,168.420968 92.1943353,167.626292 92.7680665,167.082567 C93.8945896,165.957474 95.9340572,165.957474 97.0647682,167.082567 Z M107.96566,166.200059 C109.670102,166.200059 111.014392,167.567737 111.014392,169.240738 C111.014392,170.913739 109.670102,172.285599 107.96566,172.285599 C106.290532,172.285599 104.921116,170.913739 104.921116,169.240738 C104.921116,167.567737 106.290532,166.200059 107.96566,166.200059 Z M121.031653,166.200059 C122.706781,166.200059 124.080385,167.567737 124.080385,169.240738 C124.080385,170.913739 122.706781,172.285599 121.031653,172.285599 C119.356526,172.285599 117.987109,170.913739 117.987109,169.240738 C117.987109,167.567737 119.356526,166.200059 121.031653,166.200059 Z M136.233434,167.082567 C136.807166,167.659752 137.142191,168.420968 137.142191,169.240738 C137.142191,170.031231 136.807166,170.821724 136.233434,171.403091 C135.680642,171.950999 134.889145,172.285599 134.097647,172.285599 C133.276835,172.285599 132.514652,171.950999 131.932545,171.403091 C131.354626,170.821724 131.048915,170.031231 131.048915,169.240738 C131.048915,168.420968 131.354626,167.626292 131.932545,167.082567 C133.063256,165.957474 135.102723,165.957474 136.233434,167.082567 Z M57.100905,166.195877 C58.7802202,166.195877 60.1496369,167.559372 60.1496369,169.236555 C60.1496369,170.857872 58.876289,172.183619 57.2795975,172.276247 L57.100905,172.281417 L27.7903635,172.281417 C26.1026726,172.281417 24.7416316,170.917921 24.7416316,169.236555 C24.7416316,167.619272 26.0071914,166.29367 27.6108365,166.201047 L27.7903635,166.195877 L57.100905,166.195877 Z M158.265548,34.6269294 C164.220625,34.6269294 170.117074,35.4425171 175.78738,37.0527802 C177.403878,37.5128554 178.346137,39.1900384 177.881289,40.8086665 C177.420629,42.423112 175.741314,43.3599924 174.120628,42.9040997 C168.990551,41.4444067 163.65527,40.7082864 158.265548,40.7082864 C126.358559,40.7082864 100.40246,66.6356128 100.40246,98.5020913 C100.40246,130.36857 126.358559,156.291714 158.265548,156.291714 C163.65527,156.291714 168.990551,155.559776 174.120628,154.100083 C175.745502,153.635825 177.420629,154.576888 177.881289,156.195516 C178.346137,157.814144 177.403878,159.491327 175.78738,159.951402 C170.117074,161.561665 164.220625,162.381436 158.265548,162.381436 C123.004116,162.381436 94.3091837,133.727118 94.3091837,98.5020913 C94.3091837,63.2812467 123.004116,34.6269294 158.265548,34.6269294 Z M170.2825,128.359167 L173.4675,130.91125 L165.300833,141.119583 C164.91163,141.599358 164.326118,141.877101 163.708333,141.875012 L153.242506,141.87581 C152.335637,145.397738 149.13838,148 145.333333,148 C140.823008,148 137.166667,144.343659 137.166667,139.833333 C137.166667,135.323008 140.823008,131.666667 145.333333,131.666667 C149.13838,131.666667 152.335637,134.268929 153.242506,137.790856 L162.728333,137.791667 L170.2825,128.359167 Z M185.7175,128.359167 L193.271667,137.791667 L202.757494,137.790856 C203.664363,134.268929 206.86162,131.666667 210.666667,131.666667 C215.176992,131.666667 218.833333,135.323008 218.833333,139.833333 C218.833333,144.343659 215.176992,148 210.666667,148 C206.86162,148 203.664363,145.397738 202.757494,141.87581 L192.291667,141.875012 C191.673882,141.877101 191.08837,141.599358 190.699167,141.119583 L182.5325,130.91125 L185.7175,128.359167 Z M210.666667,135.75 C208.411504,135.75 206.583333,137.578171 206.583333,139.833333 C206.583333,142.088496 208.411504,143.916667 210.666667,143.916667 C212.921829,143.916667 214.75,142.088496 214.75,139.833333 C214.75,137.578171 212.921829,135.75 210.666667,135.75 Z M145.333333,135.75 C143.078171,135.75 141.25,137.578171 141.25,139.833333 C141.25,142.088496 143.078171,143.916667 145.333333,143.916667 C147.588496,143.916667 149.416667,142.088496 149.416667,139.833333 C149.416667,137.578171 147.588496,135.75 145.333333,135.75 Z M84.3254244,70.7386467 C86.0047396,70.7386467 87.3699684,72.1021422 87.3699684,73.7835078 C87.3699684,75.4007915 86.1005146,76.7225046 84.5041013,76.8148498 L84.3254244,76.8200038 L19.2849041,76.8200038 C12.1104531,76.8200038 6.25436503,82.5703586 6.0885124,89.6967347 L6.08490026,90.0074308 L6.08490026,107.000934 C6.08490026,114.166276 11.8384962,120.014929 18.9738155,120.180571 L19.2849041,120.184179 L84.3296122,120.184179 C86.0089274,120.184179 87.3741562,121.543492 87.3741562,123.220675 C87.3741562,124.846025 86.1047024,126.168026 84.5082891,126.260381 L84.3296122,126.265536 L19.2849041,126.265536 C8.76100537,126.265536 0.184221832,117.807362 0.00292810084,107.339303 L0,107.000934 L0,90.0074308 C0,79.4927557 8.46482717,70.9227237 18.9461069,70.7415725 L19.2849041,70.7386467 L84.3254244,70.7386467 Z M184.125,72.4583333 C188.551801,72.4583333 192.155954,75.9805084 192.287923,80.3753227 L192.291667,80.625 C196.801992,80.625 200.458333,84.2813412 200.458333,88.7916667 C200.458333,89.7212501 200.30302,90.6145583 200.016928,91.4470573 C202.984094,92.6703229 205.0725,95.5912748 205.0725,99 C205.0725,102.417578 202.973232,105.344846 199.993841,106.562659 C200.645558,108.463237 200.585899,110.578242 199.747045,112.489915 C198.486157,115.363369 195.695221,117.252324 192.576094,117.369272 L192.291667,117.375 C192.291667,121.885325 188.635325,125.541667 184.125,125.541667 C181.685704,125.541667 179.49619,124.472218 177.999756,122.776615 C176.50381,124.472218 174.314296,125.541667 171.875,125.541667 C167.364675,125.541667 163.708333,121.885325 163.708333,117.375 L163.708333,117.375 C159.198008,117.375 155.541667,113.718659 155.541667,109.208333 C155.541667,108.28136 155.696109,107.390459 155.980665,106.559957 C153.00446,105.342208 150.907083,102.416038 150.907083,99 C150.907083,95.5754936 153.014871,92.6432875 156.003873,91.4299556 L155.944581,91.2540168 C155.359073,89.4012381 155.441019,87.3604151 156.252955,85.510085 C157.552052,82.5495569 160.475332,80.634098 163.708333,80.625 C163.708333,76.1146745 167.364675,72.4583333 171.875,72.4583333 C174.314296,72.4583333 176.50381,73.5277824 178.000244,75.2233848 C179.49619,73.5277824 181.685704,72.4583333 184.125,72.4583333 Z M171.875,76.5416667 C169.619837,76.5416667 167.791667,78.3698373 167.791667,80.625 C167.796437,81.0512261 167.867894,81.4728774 168.002405,81.8749086 C169.294926,82.6752801 170.340993,83.8254387 171.0175,85.1983333 L167.362917,87.0154167 C166.963651,86.1974583 166.302542,85.5363486 165.484583,85.1370833 C163.737366,84.3419354 161.672202,84.8711821 160.522775,86.4086632 C159.539725,87.7235974 159.453542,89.4723146 160.235558,90.8586227 C162.294026,91.0181087 164.223999,91.953368 165.6275,93.4875 L162.62625,96.24375 C161.855419,95.4011736 160.766974,94.9198886 159.625,94.9166667 L159.359583,94.9166667 C157.104421,94.9166667 155.27625,96.7448373 155.27625,99 C155.27625,100.935539 156.622931,102.556544 158.430433,102.977153 C159.853858,101.76942 161.696108,101.041667 163.708333,101.041667 L163.708333,105.125 C162.566359,105.128222 161.477915,105.609507 160.707083,106.452083 C160.014242,107.203088 159.628139,108.186557 159.625,109.208333 C159.6326,110.609697 160.358298,111.909266 161.547367,112.650881 C162.576346,113.292648 163.827914,113.438994 164.963987,113.071711 C165.764209,111.783321 166.912111,110.740695 168.281667,110.065833 L170.09875,113.720417 C169.280792,114.119682 168.619682,114.780792 168.220417,115.59875 C167.945157,116.150844 167.798571,116.758131 167.791667,117.375 C167.791667,119.630163 169.619837,121.458333 171.875,121.458333 C174.130163,121.458333 175.958333,119.630163 175.958333,117.375 L175.958333,80.625 C175.958333,78.3698373 174.130163,76.5416667 171.875,76.5416667 Z M137.166667,105.125 C140.972074,105.125 144.169575,107.727754 145.076096,111.25019 L153.5,111.25 L153.5,115.333333 L145.075839,115.334144 C144.16897,118.856071 140.971714,121.458333 137.166667,121.458333 C132.656341,121.458333 129,117.801992 129,113.291667 C129,108.781341 132.656341,105.125 137.166667,105.125 Z M218.833333,105.125 C223.343659,105.125 227,108.781341 227,113.291667 C227,117.801992 223.343659,121.458333 218.833333,121.458333 C215.028286,121.458333 211.83103,118.856071 210.924161,115.334144 L202.5,115.333333 L202.5,111.25 L210.923904,111.25019 C211.830425,107.727754 215.027926,105.125 218.833333,105.125 Z M184.125,76.5416667 C181.869837,76.5416667 180.041667,78.3698373 180.041667,80.625 L180.041667,117.375 C180.041667,119.630163 181.869837,121.458333 184.125,121.458333 C186.380163,121.458333 188.208333,119.630163 188.208333,117.375 C188.203563,116.948774 188.132106,116.527123 187.997595,116.125091 C186.705074,115.32472 185.659007,114.174561 184.9825,112.801667 L188.637083,110.984583 C189.036349,111.802542 189.697458,112.463651 190.515417,112.862917 C192.262634,113.658065 194.327798,113.128818 195.477225,111.591337 C196.460275,110.276403 196.546458,108.527685 195.764442,107.141377 C193.705974,106.981891 191.776001,106.046632 190.3725,104.5125 L193.37375,101.75625 C194.144581,102.598826 195.233026,103.080111 196.375,103.083333 L196.640417,103.083333 C198.895579,103.083333 200.72375,101.255163 200.72375,99 C200.72375,97.064461 199.377069,95.4434563 197.569567,95.0228468 C196.146142,96.2305798 194.303892,96.9583333 192.291667,96.9583333 L192.291667,92.875 C193.433641,92.8717781 194.522085,92.3904931 195.292917,91.5479167 C195.985758,90.7969125 196.371861,89.8134428 196.375,88.7916667 C196.3674,87.390303 195.641702,86.0907338 194.452633,85.3491192 C193.423654,84.7073517 192.172086,84.561006 191.036013,84.9282891 C190.235791,86.2166786 189.087889,87.2593053 187.718333,87.9341667 L185.90125,84.2795833 C186.719208,83.8803181 187.380318,83.2192084 187.779583,82.40125 C188.054843,81.8491561 188.201429,81.2418692 188.208333,80.625 C188.208333,78.3698373 186.380163,76.5416667 184.125,76.5416667 Z M137.166667,109.208333 C134.911504,109.208333 133.083333,111.036504 133.083333,113.291667 C133.083333,115.546829 134.911504,117.375 137.166667,117.375 C139.421829,117.375 141.25,115.546829 141.25,113.291667 C141.25,111.036504 139.421829,109.208333 137.166667,109.208333 Z M218.833333,109.208333 C216.578171,109.208333 214.75,111.036504 214.75,113.291667 C214.75,115.546829 216.578171,117.375 218.833333,117.375 C221.088496,117.375 222.916667,115.546829 222.916667,113.291667 C222.916667,111.036504 221.088496,109.208333 218.833333,109.208333 Z M57.100905,95.4614127 C58.7802202,95.4614127 60.1496369,96.8207257 60.1496369,98.5020913 C60.1496369,100.123408 58.876289,101.449154 57.2795975,101.541782 L57.100905,101.546952 L27.7903635,101.546952 C26.1026726,101.546952 24.7416316,100.183457 24.7416316,98.5020913 C24.7416316,96.8807744 26.0071914,95.5589173 27.6108365,95.4665669 L27.7903635,95.4614127 L57.100905,95.4614127 Z M137.166667,76.5416667 C140.971714,76.5416667 144.16897,79.1439287 145.075839,82.6658565 L153.5,82.6666667 L153.5,86.75 L145.075839,86.7508102 C144.16897,90.272738 140.971714,92.875 137.166667,92.875 C132.656341,92.875 129,89.2186588 129,84.7083333 C129,80.1980079 132.656341,76.5416667 137.166667,76.5416667 Z M218.833333,76.5416667 C223.343659,76.5416667 227,80.1980079 227,84.7083333 C227,89.2186588 223.343659,92.875 218.833333,92.875 C215.028286,92.875 211.83103,90.272738 210.924161,86.7508102 L202.5,86.75 L202.5,82.6666667 L210.924161,82.6658565 C211.83103,79.1439287 215.028286,76.5416667 218.833333,76.5416667 Z M218.833333,80.625 C216.578171,80.625 214.75,82.4531706 214.75,84.7083333 C214.75,86.9634961 216.578171,88.7916667 218.833333,88.7916667 C221.088496,88.7916667 222.916667,86.9634961 222.916667,84.7083333 C222.916667,82.4531706 221.088496,80.625 218.833333,80.625 Z M137.166667,80.625 C134.911504,80.625 133.083333,82.4531706 133.083333,84.7083333 C133.083333,86.9634961 134.911504,88.7916667 137.166667,88.7916667 C139.421829,88.7916667 141.25,86.9634961 141.25,84.7083333 C141.25,82.4531706 139.421829,80.625 137.166667,80.625 Z M145.333333,50 C149.13874,50 152.336242,52.6027545 153.242763,56.1251895 L163.708333,56.125 C164.329555,56.127864 164.915678,56.4134111 165.300833,56.9008333 L173.4675,67.1091667 L170.2825,69.66125 L162.728333,60.2083333 L153.24063,60.2085949 C152.878922,61.6091342 152.148288,62.9011224 151.108039,63.941372 C149.576492,65.4729191 147.499268,66.3333333 145.333333,66.3333333 C140.823008,66.3333333 137.166667,62.6769921 137.166667,58.1666667 C137.166667,53.6563412 140.823008,50 145.333333,50 Z M210.666667,50 C215.176992,50 218.833333,53.6563412 218.833333,58.1666667 C218.833333,60.3326013 217.972919,62.409825 216.441372,63.941372 C214.909825,65.4729191 212.832601,66.3333333 210.666667,66.3333333 C206.86162,66.3333333 203.664363,63.7310713 202.757494,60.2091435 L193.271667,60.2083333 L185.7175,69.66125 L182.5325,67.1091667 L190.699167,56.9008333 C191.084322,56.4134111 191.670445,56.127864 192.291667,56.125 L202.757237,56.1251895 C203.663758,52.6027545 206.86126,50 210.666667,50 Z M210.666667,54.0833333 C208.411504,54.0833333 206.583333,55.9115039 206.583333,58.1666667 C206.583333,60.4218294 208.411504,62.25 210.666667,62.25 C212.921829,62.25 214.75,60.4218294 214.75,58.1666667 C214.75,57.0836993 214.319793,56.0450875 213.554019,55.279314 C212.788246,54.5135404 211.749634,54.0833333 210.666667,54.0833333 Z M145.333333,54.0833333 C143.078171,54.0833333 141.25,55.9115039 141.25,58.1666667 C141.25,60.4218294 143.078171,62.25 145.333333,62.25 C147.588496,62.25 149.416667,60.4218294 149.416667,58.1666667 C149.416667,57.0836993 148.98646,56.0450875 148.220686,55.279314 C147.454912,54.5135404 146.416301,54.0833333 145.333333,54.0833333 Z M158.709456,0 C169.233355,0 177.814238,8.4622678 177.995619,18.9304142 L177.998548,19.2687841 L177.998548,24.0912083 C177.998548,25.7725738 176.637507,27.1360693 174.954004,27.1360693 C173.326588,27.1360693 172.002906,25.8682272 171.910433,24.2700906 L171.905272,24.0912083 L171.905272,19.2687841 C171.905272,12.1034421 166.155745,6.2547892 159.020542,6.08914715 L158.709456,6.08553959 L19.2849041,6.08553959 C12.1104531,6.08553959 6.25436503,11.8318305 6.0885124,18.9580905 L6.08490026,19.2687841 L6.08490026,36.2622874 C6.08490026,43.4276294 11.8384962,49.2803462 18.9738155,49.4461043 L19.2849041,49.4497144 L97.1066464,49.4497144 C98.7943372,49.4497144 100.155378,50.8048449 100.155378,52.4862105 C100.155378,54.1075273 98.8898184,55.4332735 97.2861734,55.5259017 L97.1066464,55.5310715 L19.2849041,55.5310715 C8.76100537,55.5310715 0.184221832,47.0688037 0.00292810084,36.6006573 L0,36.2622874 L0,19.2687841 C0,8.75824699 8.46482717,0.184164967 18.9461069,0.00292720313 L19.2849041,0 L158.709456,0 Z M97.0647682,25.6094563 C97.6426872,26.1866415 97.9777126,26.9478567 97.9777126,27.767627 C97.9777126,28.5581198 97.6426872,29.3527951 97.0647682,29.9299803 C96.5119762,30.4737054 95.7204785,30.8083056 94.9289808,30.8083056 C94.1374831,30.8083056 93.3459854,30.4737054 92.7680665,29.9299803 C92.1943353,29.3527951 91.8844368,28.5581198 91.8844368,27.767627 C91.8844368,26.9729517 92.1943353,26.1866415 92.7680665,25.6094563 C93.9239044,24.4843634 95.9340572,24.4843634 97.0647682,25.6094563 Z M121.031653,24.7269485 C122.706781,24.7269485 124.080385,26.0988089 124.080385,27.767627 C124.080385,29.4406276 122.706781,30.8083056 121.031653,30.8083056 C119.356526,30.8083056 117.987109,29.4406276 117.987109,27.767627 C117.987109,26.0988089 119.356526,24.7269485 121.031653,24.7269485 Z M107.96566,24.7269485 C109.670102,24.7269485 111.014392,26.0988089 111.014392,27.767627 C111.014392,29.4406276 109.670102,30.8083056 107.96566,30.8083056 C106.290532,30.8083056 104.921116,29.4406276 104.921116,27.767627 C104.921116,26.0988089 106.290532,24.7269485 107.96566,24.7269485 Z M136.233434,25.6094563 C136.807166,26.1866415 137.142191,26.9729517 137.142191,27.767627 C137.142191,28.5581198 136.807166,29.3527951 136.233434,29.9299803 C135.680642,30.4737054 134.889145,30.8083056 134.097647,30.8083056 C133.276835,30.8083056 132.485337,30.4737054 131.932545,29.9007027 C131.354626,29.3527951 131.048915,28.5873973 131.048915,27.767627 C131.048915,26.9478567 131.354626,26.1866415 131.932545,25.6094563 C133.063256,24.4843634 135.102723,24.4843634 136.233434,25.6094563 Z M57.100905,24.722766 C58.7802202,24.722766 60.1496369,26.0862614 60.1496369,27.767627 C60.1496369,29.3889438 58.876289,30.7069119 57.2795975,30.7989845 L57.100905,30.8041231 L27.7903635,30.8041231 C26.1026726,30.8041231 24.7416316,29.4489926 24.7416316,27.767627 C24.7416316,26.1463102 26.0071914,24.820564 27.6108365,24.7279358 L27.7903635,24.722766 L57.100905,24.722766 Z" id="Combined-Shape-Copy-2" fill="url(#linearGradient-1)"></path> <path d="M379.102459,141.477293 C380.781774,141.477293 382.142815,142.840789 382.142815,144.517972 C382.142815,146.139289 380.877255,147.465035 379.28112,147.557663 L379.102459,147.562833 L301.284904,147.562833 C294.110453,147.562833 288.254365,153.30506 288.088512,160.431204 L288.0849,160.741895 L288.0849,177.735398 C288.0849,184.90074 293.838496,190.749393 300.973815,190.915035 L301.284904,190.918643 L440.709456,190.918643 C447.883907,190.918643 453.735926,185.172352 453.901663,178.046092 L453.905272,177.735398 L453.905272,172.908792 C453.905272,171.227426 455.266313,169.868113 456.954004,169.868113 C458.577382,169.868113 459.90092,171.132066 459.993387,172.729925 L459.998548,172.908792 L459.998548,177.735398 C459.998548,188.241798 451.529622,196.815836 441.048255,196.997073 L440.709456,197 L301.284904,197 C290.761005,197 282.184222,188.537732 282.002928,178.073636 L282,177.735398 L282,160.741895 C282,150.231358 290.464827,141.66137 300.946107,141.480219 L301.284904,141.477293 L379.102459,141.477293 Z M418.233434,167.082567 C418.807166,167.659752 419.142191,168.420968 419.142191,169.240738 C419.142191,170.031231 418.807166,170.821724 418.233434,171.403091 C417.680642,171.950999 416.889145,172.285599 416.097647,172.285599 C415.276835,172.285599 414.514652,171.950999 413.932545,171.403091 C413.354626,170.821724 413.048915,170.031231 413.048915,169.240738 C413.048915,168.420968 413.354626,167.626292 413.932545,167.082567 C415.063256,165.957474 417.102723,165.957474 418.233434,167.082567 Z M403.031653,166.200059 C404.706781,166.200059 406.080385,167.567737 406.080385,169.240738 C406.080385,170.913739 404.706781,172.285599 403.031653,172.285599 C401.356526,172.285599 399.987109,170.913739 399.987109,169.240738 C399.987109,167.567737 401.356526,166.200059 403.031653,166.200059 Z M389.96566,166.200059 C391.670102,166.200059 393.014392,167.567737 393.014392,169.240738 C393.014392,170.913739 391.670102,172.285599 389.96566,172.285599 C388.290532,172.285599 386.921116,170.913739 386.921116,169.240738 C386.921116,167.567737 388.290532,166.200059 389.96566,166.200059 Z M379.064768,167.082567 C379.642687,167.659752 379.977713,168.420968 379.977713,169.240738 C379.977713,170.031231 379.642687,170.821724 379.094083,171.403091 C378.511976,171.950999 377.720478,172.285599 376.928981,172.285599 C376.137483,172.285599 375.345985,171.950999 374.768066,171.403091 C374.194335,170.821724 373.884437,170.031231 373.884437,169.240738 C373.884437,168.420968 374.194335,167.626292 374.768066,167.082567 C375.89459,165.957474 377.934057,165.957474 379.064768,167.082567 Z M339.100905,166.195877 C340.78022,166.195877 342.149637,167.559372 342.149637,169.236555 C342.149637,170.857872 340.876289,172.183619 339.279598,172.276247 L339.100905,172.281417 L309.790363,172.281417 C308.102673,172.281417 306.741632,170.917921 306.741632,169.236555 C306.741632,167.619272 308.007191,166.29367 309.610836,166.201047 L309.790363,166.195877 L339.100905,166.195877 Z M440.265548,34.6269294 C446.220625,34.6269294 452.117074,35.4425171 457.78738,37.0527802 C459.403878,37.5128554 460.346137,39.1900384 459.881289,40.8086665 C459.420629,42.423112 457.741314,43.3599924 456.120628,42.9040997 C450.990551,41.4444067 445.65527,40.7082864 440.265548,40.7082864 C408.358559,40.7082864 382.40246,66.6356128 382.40246,98.5020913 C382.40246,130.36857 408.358559,156.291714 440.265548,156.291714 C445.65527,156.291714 450.990551,155.559776 456.120628,154.100083 C457.745502,153.635825 459.420629,154.576888 459.881289,156.195516 C460.346137,157.814144 459.403878,159.491327 457.78738,159.951402 C452.117074,161.561665 446.220625,162.381436 440.265548,162.381436 C405.004116,162.381436 376.309184,133.727118 376.309184,98.5020913 C376.309184,63.2812467 405.004116,34.6269294 440.265548,34.6269294 Z M465.860221,51.4021833 C466.392713,51.9328028 466.392713,52.7971688 465.860221,53.3277883 C465.293042,53.8965323 464.790967,54.5173592 464.340974,55.175078 L464.077124,55.5740149 L485.416165,76.9112926 C486.246777,76.3825481 487.01364,75.7975542 487.671755,75.139436 C488.204247,74.6088166 489.066733,74.6088166 489.599225,75.139436 C490.133592,75.6719305 490.133592,76.5344215 489.599225,77.068791 C487.773004,78.8968969 485.412415,80.3068822 482.590585,81.2593723 C482.444337,81.3081218 482.298089,81.3306216 482.153716,81.3306216 C481.5856,81.3306216 481.054984,80.9725003 480.861862,80.4043812 C480.61999,79.6900136 481.004359,78.9156467 481.716848,78.6737742 C481.985594,78.5837752 482.240173,78.4821096 482.492253,78.3782218 L482.869955,78.2219039 L462.764644,58.1183634 C459.620318,65.7495339 461.42029,76.0694264 462.025906,78.9775211 C463.691334,79.322972 467.745706,80.0545346 472.33749,80.0387171 L472.769488,80.0350101 L465.269605,72.5350882 C464.737113,72.0007187 464.737113,71.1401027 465.269605,70.6057333 C465.766597,70.1104884 466.551052,70.0774721 467.086372,70.5066843 L467.197075,70.6057333 L476.864424,80.2731326 C476.909423,80.3181321 476.928173,80.3762565 476.965672,80.425006 C477.023797,80.5037552 477.083796,80.5768794 477.125045,80.6668785 C477.166294,80.7512526 477.181294,80.8375017 477.203794,80.9256258 C477.218793,80.9893751 477.252543,81.0418746 477.258168,81.1093739 C477.260043,81.1337486 477.250668,81.1524984 477.250668,81.1749982 C477.256293,81.2687472 477.239418,81.3568713 477.224418,81.4487453 C477.209419,81.5349944 477.203794,81.6212435 477.173794,81.6999927 C477.14942,81.771242 477.102545,81.8331163 477.065046,81.9024906 C477.014422,81.9906147 476.967547,82.0787388 476.898173,82.151863 C476.883174,82.1668628 476.879424,82.1893626 476.864424,82.2024875 C476.8213,82.245612 476.766926,82.2624868 476.718176,82.2981115 C476.639428,82.3599858 476.564429,82.4199852 476.472555,82.4631098 C476.390056,82.5024843 476.301933,82.5193592 476.213809,82.539984 C476.15006,82.5568588 476.095686,82.5906084 476.030062,82.5962334 C474.717583,82.7199821 473.418228,82.7706066 472.161997,82.7706066 C468.228309,82.7706066 464.750238,82.2662368 462.642771,81.8762409 C463.265261,85.2362059 464.182122,92.1023844 462.875268,98.6235664 C462.74402,99.2723097 462.174029,99.718555 461.538413,99.718555 C461.448415,99.718555 461.358416,99.7091801 461.268418,99.6904303 C460.531554,99.5423069 460.051562,98.8260643 460.199684,98.085447 C460.322026,97.4765471 460.416947,96.8623738 460.496311,96.2468822 L460.570929,95.6310976 L445.361166,80.423131 C443.314167,80.6534411 441.282923,81.0901423 439.397412,81.8025567 L438.886892,82.0037395 L442.981828,86.0968219 C443.51432,86.6311913 443.51432,87.4955573 442.981828,88.0261768 C442.715583,88.292424 442.366838,88.4255477 442.016218,88.4255477 C441.718902,88.4255477 441.41883,88.3277425 441.172678,88.1321323 L441.054359,88.0261768 L436.338807,83.3124759 C435.53257,83.8280955 434.775082,84.4130894 434.094467,85.0937074 C433.528762,85.6610229 433.023668,86.306858 432.556751,87.0028748 L432.32637,87.3549338 L453.657912,108.686587 C454.466024,108.172842 455.221637,107.585973 455.904126,106.905355 C456.466618,106.342861 456.971253,105.690827 457.438104,104.992941 L457.668474,104.640379 L445.638662,92.612379 C445.10617,92.0798846 445.10617,91.2173936 445.638662,90.6848991 C446.135654,90.1879043 446.920109,90.1547713 447.455429,90.5855002 L447.566132,90.6848991 L460.370307,103.487266 C460.387181,103.506016 460.392806,103.53039 460.411556,103.54914 C460.47718,103.622264 460.524054,103.702889 460.570929,103.789138 C460.610303,103.860387 460.655302,103.927886 460.683427,104.00476 C460.709676,104.089134 460.719051,104.173509 460.732176,104.261633 C460.745301,104.347882 460.760301,104.430381 460.756551,104.51663 C460.752801,104.601004 460.728426,104.679753 460.707801,104.762252 C460.687177,104.852252 460.666552,104.942251 460.623428,105.0285 C460.612178,105.054749 460.614053,105.079124 460.600928,105.105374 C459.82844,106.515359 458.894705,107.771596 457.833471,108.832835 C453.290417,113.374038 446.362401,114.549651 440.407494,114.549651 C436.48693,114.549651 432.997609,114.043406 430.880767,113.64966 C431.872627,118.985854 433.595725,133.068833 426.065843,140.600629 C425.799597,140.865001 425.452727,141 425.102108,141 C424.751488,141 424.404619,140.865001 424.136498,140.600629 C423.605881,140.068135 423.605881,139.203769 424.136498,138.673149 C424.366494,138.443152 424.583158,138.205654 424.790932,137.960657 L425.096483,137.587536 L414.261027,126.752023 C413.728535,126.217654 413.728535,125.355163 414.261027,124.822669 C414.758019,124.327424 415.542474,124.294407 416.077794,124.72362 L416.188497,124.822669 L426.603959,135.238185 C427.485664,133.533203 428.082204,131.650189 428.461457,129.710456 L428.559554,129.180123 L411.83294,112.429048 C409.870158,112.769357 407.964094,113.323934 406.227396,114.15777 L405.758035,114.392152 L411.705442,120.33959 C412.237934,120.87396 412.237934,121.736451 411.705442,122.268945 C411.439196,122.537067 411.090452,122.668316 410.741707,122.668316 C410.441176,122.668316 410.1434,122.571888 409.89679,122.375491 L409.777972,122.268945 L403.412447,115.901511 C403.033703,116.201508 402.669958,116.51838 402.328714,116.861501 C402.062468,117.127749 401.711848,117.260872 401.364979,117.260872 C401.014359,117.260872 400.665615,117.127749 400.399369,116.861501 C399.866877,116.329007 399.866877,115.466516 400.399369,114.932147 C406.06178,109.269706 415.455384,108.82346 422.334651,109.442204 C423.086514,109.507828 423.639631,110.169696 423.572132,110.921563 C423.502758,111.671556 422.842768,112.209675 422.090905,112.15905 C420.214434,111.986927 418.137492,111.904409 416.017265,111.996242 L415.309136,112.033427 L428.964547,125.687035 C429.393916,118.768357 427.820815,112.324049 427.792691,112.217175 C427.715817,111.905928 425.90272,104.544755 426.637709,96.7373361 C426.643334,96.6717118 426.677083,96.6210873 426.692083,96.5629629 C426.710833,96.4692139 426.731457,96.3792148 426.772707,96.2910907 C426.812081,96.2067166 426.866455,96.1373423 426.922704,96.0642181 C426.962079,96.0135936 426.982703,95.9479693 427.031453,95.9010948 C427.048327,95.88422 427.072702,95.87672 427.089577,95.8617202 C427.145826,95.8110957 427.21145,95.779221 427.275199,95.7379715 C427.367072,95.6798471 427.453321,95.6217227 427.552694,95.587973 C427.605194,95.5692232 427.661443,95.5673483 427.717692,95.5542234 C427.832065,95.5317236 427.944563,95.5073489 428.060812,95.5148488 C428.083311,95.5148488 428.102061,95.5054739 428.122686,95.5073489 C428.18831,95.5129738 428.242684,95.5485985 428.304558,95.5617233 C428.396431,95.5842231 428.484555,95.6010979 428.568929,95.6404725 C428.657052,95.683597 428.733926,95.7417214 428.8108,95.7998458 C428.842049,95.8248456 428.877465,95.8415121 428.911493,95.8631785 L428.960797,95.9010948 L439.36876,106.310986 C439.903127,106.843481 439.903127,107.705972 439.36876,108.240341 C439.102514,108.504713 438.753769,108.639712 438.405025,108.639712 C438.106101,108.639712 437.807177,108.540529 437.560206,108.345706 L437.44129,108.240341 L429.200794,99.9979271 C429.13517,104.766002 429.902033,109.020333 430.258277,110.737815 C433.118683,111.331662 443.151646,113.07559 450.736422,110.15109 L451.113576,110.000948 L431.004516,89.8917824 C430.792644,90.403652 430.592022,90.9267716 430.41765,91.4836408 C430.233903,92.0648847 429.695786,92.4361309 429.11642,92.4361309 C428.979547,92.4361309 428.842674,92.4173811 428.707676,92.3742565 C427.989563,92.1492589 427.590194,91.3842668 427.813315,90.6642743 C428.767676,87.624931 430.230153,85.1012073 432.166997,83.1662274 C437.763785,77.5675358 447.016765,77.0706659 453.804159,77.6519099 C454.554148,77.7137842 455.111014,78.3719024 455.047265,79.1237695 C454.983516,79.8737617 454.317901,80.426881 453.573538,80.3668816 C452.3457,80.2640255 451.032455,80.1983629 449.67631,80.1958703 L448.994859,80.2000083 L460.799675,92.0030104 C460.882174,85.8343246 459.579069,80.518755 459.560319,80.4493807 C459.359698,79.6431391 454.72102,60.6139624 463.932751,51.4021833 C464.465243,50.8659389 465.327729,50.8659389 465.860221,51.4021833 Z M473.886971,128.737628 C474.365088,129.315122 474.284464,130.177613 473.705098,130.655733 C465.659599,137.326913 455.465383,141 444.999297,141 C444.247434,141 443.636193,140.390631 443.636193,139.635014 C443.636193,138.883147 444.247434,138.273778 444.999297,138.273778 C454.829768,138.273778 464.407119,134.823814 471.965126,128.55763 C472.544491,128.077635 473.405103,128.158259 473.886971,128.737628 Z M366.325424,70.7386467 C368.00474,70.7386467 369.369968,72.1021422 369.369968,73.7835078 C369.369968,75.4007915 368.100515,76.7225046 366.504101,76.8148498 L366.325424,76.8200038 L301.284904,76.8200038 C294.110453,76.8200038 288.254365,82.5703586 288.088512,89.6967347 L288.0849,90.0074308 L288.0849,107.000934 C288.0849,114.166276 293.838496,120.014929 300.973815,120.180571 L301.284904,120.184179 L366.329612,120.184179 C368.008927,120.184179 369.374156,121.543492 369.374156,123.220675 C369.374156,124.846025 368.104702,126.168026 366.508289,126.260381 L366.329612,126.265536 L301.284904,126.265536 C290.761005,126.265536 282.184222,117.807362 282.002928,107.339303 L282,107.000934 L282,90.0074308 C282,79.4927557 290.464827,70.9227237 300.946107,70.7415725 L301.284904,70.7386467 L366.325424,70.7386467 Z M480.861862,120.900209 C481.467477,121.350205 481.594975,122.203321 481.144982,122.808939 C480.406244,123.804554 479.611256,124.785169 478.786269,125.722659 C478.518148,126.030156 478.139404,126.185779 477.762535,126.185779 C477.441915,126.185779 477.121295,126.075155 476.860674,125.848283 C476.296308,125.349538 476.240059,124.487047 476.738801,123.920803 C477.515039,123.039562 478.261277,122.118947 478.956891,121.181456 C479.403134,120.577713 480.259996,120.453964 480.861862,120.900209 Z M488.63549,94.635483 C489.389228,94.635483 489.998594,95.2467266 489.998594,96.0004687 C489.998594,101.893532 488.877361,107.625348 486.663021,113.038416 C486.192403,114.185904 485.667411,115.329642 485.09742,116.445256 C484.857424,116.917751 484.379307,117.189623 483.882439,117.189623 C483.674318,117.189623 483.462446,117.142749 483.265574,117.039625 C482.592459,116.700253 482.328089,115.877137 482.669333,115.205894 C483.201825,114.15778 483.696817,113.081541 484.137435,112.005302 C486.218653,106.92223 487.272386,101.539161 487.272386,96.0004687 C487.272386,95.2467266 487.881752,94.635483 488.63549,94.635483 Z M339.100905,95.4614127 C340.78022,95.4614127 342.149637,96.8207257 342.149637,98.5020913 C342.149637,100.123408 340.876289,101.449154 339.279598,101.541782 L339.100905,101.546952 L309.790363,101.546952 C308.102673,101.546952 306.741632,100.183457 306.741632,98.5020913 C306.741632,96.8807744 308.007191,95.5589173 309.610836,95.4665669 L309.790363,95.4614127 L339.100905,95.4614127 Z M404.321807,80.1175092 C405.030546,80.3706316 405.401791,81.1487485 405.14867,81.859366 C403.54182,86.3893189 402.726207,91.1461443 402.726207,96.0004687 C402.726207,96.7523359 402.116842,97.3635795 401.364979,97.3635795 C400.609365,97.3635795 400,96.7523359 400,96.0004687 C400,90.8348976 400.868111,85.7705753 402.578085,80.9462506 C402.831206,80.235633 403.613069,79.8700118 404.321807,80.1175092 Z M444.999297,51.0009375 C445.753035,51.0009375 446.364276,51.6103061 446.364276,52.3640483 C446.364276,53.1177904 445.753035,53.7271591 444.999297,53.7271591 C429.997656,53.7271591 415.987875,61.7933251 408.435493,74.7719399 C408.182372,75.2069353 407.724879,75.4506828 407.256137,75.4506828 C407.021765,75.4506828 406.787394,75.3925584 406.571772,75.2650597 C405.921157,74.8863137 405.699911,74.0519474 406.078655,73.4013292 C414.118529,59.5827231 429.032046,51.0009375 444.999297,51.0009375 Z M440.709456,0 C451.233355,0 459.814238,8.4622678 459.995619,18.9304142 L459.998548,19.2687841 L459.998548,24.0912083 C459.998548,25.7725738 458.637507,27.1360693 456.954004,27.1360693 C455.326588,27.1360693 454.002906,25.8682272 453.910433,24.2700906 L453.905272,24.0912083 L453.905272,19.2687841 C453.905272,12.1034421 448.155745,6.2547892 441.020542,6.08914715 L440.709456,6.08553959 L301.284904,6.08553959 C294.110453,6.08553959 288.254365,11.8318305 288.088512,18.9580905 L288.0849,19.2687841 L288.0849,36.2622874 C288.0849,43.4276294 293.838496,49.2803462 300.973815,49.4461043 L301.284904,49.4497144 L379.106646,49.4497144 C380.794337,49.4497144 382.155378,50.8048449 382.155378,52.4862105 C382.155378,54.1075273 380.889818,55.4332735 379.286173,55.5259017 L379.106646,55.5310715 L301.284904,55.5310715 C290.761005,55.5310715 282.184222,47.0688037 282.002928,36.6006573 L282,36.2622874 L282,19.2687841 C282,8.75824699 290.464827,0.184164967 300.946107,0.00292720313 L301.284904,0 L440.709456,0 Z M379.064768,25.6094563 C379.642687,26.1866415 379.977713,26.9478567 379.977713,27.767627 C379.977713,28.5581198 379.642687,29.3527951 379.064768,29.9299803 C378.511976,30.4737054 377.720478,30.8083056 376.928981,30.8083056 C376.137483,30.8083056 375.345985,30.4737054 374.768066,29.9299803 C374.194335,29.3527951 373.884437,28.5581198 373.884437,27.767627 C373.884437,26.9729517 374.194335,26.1866415 374.768066,25.6094563 C375.923904,24.4843634 377.934057,24.4843634 379.064768,25.6094563 Z M403.031653,24.7269485 C404.706781,24.7269485 406.080385,26.0988089 406.080385,27.767627 C406.080385,29.4406276 404.706781,30.8083056 403.031653,30.8083056 C401.356526,30.8083056 399.987109,29.4406276 399.987109,27.767627 C399.987109,26.0988089 401.356526,24.7269485 403.031653,24.7269485 Z M389.96566,24.7269485 C391.670102,24.7269485 393.014392,26.0988089 393.014392,27.767627 C393.014392,29.4406276 391.670102,30.8083056 389.96566,30.8083056 C388.290532,30.8083056 386.921116,29.4406276 386.921116,27.767627 C386.921116,26.0988089 388.290532,24.7269485 389.96566,24.7269485 Z M418.233434,25.6094563 C418.807166,26.1866415 419.142191,26.9729517 419.142191,27.767627 C419.142191,28.5581198 418.807166,29.3527951 418.233434,29.9299803 C417.680642,30.4737054 416.889145,30.8083056 416.097647,30.8083056 C415.276835,30.8083056 414.485337,30.4737054 413.932545,29.9007027 C413.354626,29.3527951 413.048915,28.5873973 413.048915,27.767627 C413.048915,26.9478567 413.354626,26.1866415 413.932545,25.6094563 C415.063256,24.4843634 417.102723,24.4843634 418.233434,25.6094563 Z M339.100905,24.722766 C340.78022,24.722766 342.149637,26.0862614 342.149637,27.767627 C342.149637,29.3889438 340.876289,30.7069119 339.279598,30.7989845 L339.100905,30.8041231 L309.790363,30.8041231 C308.102673,30.8041231 306.741632,29.4489926 306.741632,27.767627 C306.741632,26.1463102 308.007191,24.820564 309.610836,24.7279358 L309.790363,24.722766 L339.100905,24.722766 Z" id="Combined-Shape-Copy-3" fill="url(#linearGradient-2)"></path> <path d="M642.83187,141.477293 C644.511186,141.477293 645.872227,142.840789 645.872227,144.517972 C645.872227,146.139289 644.606667,147.465035 643.010532,147.557663 L642.83187,147.562833 L565.014316,147.562833 C557.839865,147.562833 551.983777,153.30506 551.817924,160.431204 L551.814312,160.741895 L551.814312,177.735398 C551.814312,184.90074 557.567908,190.749393 564.703227,190.915035 L565.014316,190.918643 L704.438868,190.918643 C711.613319,190.918643 717.465338,185.172352 717.631074,178.046092 L717.634684,177.735398 L717.634684,172.908792 C717.634684,171.227426 718.995725,169.868113 720.683416,169.868113 C722.306794,169.868113 723.630331,171.132066 723.722799,172.729925 L723.72796,172.908792 L723.72796,177.735398 C723.72796,188.241798 715.259034,196.815836 704.777667,196.997073 L704.438868,197 L565.014316,197 C554.490417,197 545.913634,188.537732 545.73234,178.073636 L545.729412,177.735398 L545.729412,160.741895 C545.729412,150.231358 554.194239,141.66137 564.675519,141.480219 L565.014316,141.477293 L642.83187,141.477293 Z M653.695071,166.200059 C655.399514,166.200059 656.743803,167.567737 656.743803,169.240738 C656.743803,170.913739 655.399514,172.285599 653.695071,172.285599 C652.019944,172.285599 650.650527,170.913739 650.650527,169.240738 C650.650527,167.567737 652.019944,166.200059 653.695071,166.200059 Z M642.79418,167.082567 C643.372099,167.659752 643.707124,168.420968 643.707124,169.240738 C643.707124,170.031231 643.372099,170.821724 642.823495,171.403091 C642.241388,171.950999 641.44989,172.285599 640.658393,172.285599 C639.866895,172.285599 639.075397,171.950999 638.497478,171.403091 C637.923747,170.821724 637.613849,170.031231 637.613849,169.240738 C637.613849,168.420968 637.923747,167.626292 638.497478,167.082567 C639.624001,165.957474 641.663469,165.957474 642.79418,167.082567 Z M666.761065,166.200059 C668.436193,166.200059 669.809797,167.567737 669.809797,169.240738 C669.809797,170.913739 668.436193,172.285599 666.761065,172.285599 C665.085938,172.285599 663.716521,170.913739 663.716521,169.240738 C663.716521,167.567737 665.085938,166.200059 666.761065,166.200059 Z M681.962846,167.082567 C682.536577,167.659752 682.871603,168.420968 682.871603,169.240738 C682.871603,170.031231 682.536577,170.821724 681.962846,171.403091 C681.410054,171.950999 680.618557,172.285599 679.827059,172.285599 C679.006246,172.285599 678.244063,171.950999 677.661957,171.403091 C677.084038,170.821724 676.778327,170.031231 676.778327,169.240738 C676.778327,168.420968 677.084038,167.626292 677.661957,167.082567 C678.792668,165.957474 680.832135,165.957474 681.962846,167.082567 Z M602.830317,166.195877 C604.509632,166.195877 605.879049,167.559372 605.879049,169.236555 C605.879049,170.857872 604.605701,172.183619 603.009009,172.276247 L602.830317,172.281417 L573.519775,172.281417 C571.832084,172.281417 570.471043,170.917921 570.471043,169.236555 C570.471043,167.619272 571.736603,166.29367 573.340248,166.201047 L573.519775,166.195877 L602.830317,166.195877 Z M703.994959,34.6269294 C709.950037,34.6269294 715.846486,35.4425171 721.516792,37.0527802 C723.13329,37.5128554 724.075549,39.1900384 723.610701,40.8086665 C723.150041,42.423112 721.470726,43.3599924 719.85004,42.9040997 C714.719962,41.4444067 709.384682,40.7082864 703.994959,40.7082864 C672.08797,40.7082864 646.131871,66.6356128 646.131871,98.5020913 C646.131871,130.36857 672.08797,156.291714 703.994959,156.291714 C709.384682,156.291714 714.719962,155.559776 719.85004,154.100083 C721.474914,153.635825 723.150041,154.576888 723.610701,156.195516 C724.075549,157.814144 723.13329,159.491327 721.516792,159.951402 C715.846486,161.561665 709.950037,162.381436 703.994959,162.381436 C668.733528,162.381436 640.038595,133.727118 640.038595,98.5020913 C640.038595,63.2812467 668.733528,34.6269294 703.994959,34.6269294 Z M678.396897,98.0025 C679.04155,98.307 679.314014,99.0665 679.005934,99.7 C677.449505,102.89375 676.594716,106.3115 676.398827,109.857 C681.561397,111.72775 688.857378,111.54925 693.476801,109.33375 C699.303613,106.53025 708.435609,106.532 714.264203,109.33375 C717.154458,110.72325 721.341144,111.37775 725.433447,111.075 C726.184949,111.0225 726.769054,111.54925 726.820698,112.251 C726.872341,112.951 726.339879,113.56175 725.623993,113.6125 C721.011694,113.9485 716.459942,113.22225 713.126265,111.621 C708.020681,109.16575 699.716761,109.16575 694.612958,111.621 C689.599976,114.029 682.086736,114.3615 676.336499,112.56075 C676.347184,112.91775 676.366772,113.25725 676.395265,113.59325 C677.424574,126.26675 687.877932,136.87875 700.708672,138.2805 C704.17413,138.66025 707.605752,138.417 710.909155,137.563 C711.594767,137.37925 712.308873,137.78875 712.490515,138.46775 C712.673939,139.1485 712.260791,139.84675 711.569836,140.0235 C709.058893,140.67275 706.48206,141 703.874954,141 C702.729892,141 701.577708,140.937 700.421962,140.80925 C686.148765,139.25175 674.958151,127.89075 673.81309,113.7945 C673.736515,112.85125 673.713365,111.866 673.740077,110.697 C673.836241,106.4655 674.821029,102.395 676.667729,98.601 C676.97759,97.96925 677.748681,97.69975 678.396897,98.0025 Z M752.843683,102.234 C753.514826,102.234 754.067016,102.736954 754.133419,103.378048 L754.140113,103.508 L754.140113,130.3915 C754.140113,136.145669 749.453024,140.844474 743.633713,140.994552 L743.34662,140.99825 L742.482927,140.99825 C736.62745,140.99825 731.845917,136.392254 731.693197,130.673626 L731.689434,130.3915 L731.689434,129.6705 C731.689434,128.96875 732.271759,128.4 732.985864,128.4 C733.655338,128.4 734.208989,128.899878 734.27558,129.540587 L734.282294,129.6705 L734.282294,130.3915 C734.282294,134.755903 737.826446,138.319558 742.232618,138.450048 L742.482927,138.45375 L743.34662,138.45375 C747.784367,138.45375 751.412415,134.970918 751.545265,130.637669 L751.549034,130.3915 L751.549034,103.508 C751.549034,102.80625 752.129578,102.234 752.843683,102.234 Z M713.831466,72.27225 C714.502609,72.27225 715.054799,72.773666 715.121201,73.4160092 L715.127896,73.54625 L715.127896,79.799 C715.127896,82.1615 716.452819,84.356 718.584449,85.53025 C727.722521,90.5582059 733.593126,99.9931288 733.988663,110.236082 L734.002707,110.69525 L734.002707,110.697 L734.011611,110.92975 C734.018734,111.07325 734.024077,111.2185 734.024077,111.36375 C734.024077,121.89875 728.257812,131.7285 718.974447,137.01875 C718.771434,137.136 718.547052,137.19025 718.328012,137.19025 C717.881029,137.19025 717.44473,136.96275 717.204321,136.555 C716.846378,135.94775 717.056514,135.169 717.674455,134.8155 C726.032977,130.054638 731.271826,121.269518 731.431043,111.807753 L731.434778,111.36375 L731.411628,110.75475 L731.397738,110.308789 C731.026667,100.955106 725.664284,92.3436016 717.320074,87.751 C714.458689,86.1779091 712.648901,83.2636979 712.541844,80.0966211 L712.536816,79.799 L712.536816,73.54625 C712.536816,72.84275 713.117361,72.27225 713.831466,72.27225 Z M695.184598,130.49125 C695.900484,130.49125 696.479247,131.06175 696.479247,131.7635 C696.479247,132.467 695.900484,133.0375 695.184598,133.0375 C694.468712,133.0375 693.889949,132.467 693.889949,131.7635 C693.889949,131.06175 694.468712,130.49125 695.184598,130.49125 Z M740.085956,127.09625 C740.803623,127.09625 741.382386,127.6685 741.382386,128.3685 C741.382386,129.072 740.803623,129.6425 740.085956,129.6425 C739.371851,129.6425 738.791307,129.072 738.791307,128.3685 C738.791307,127.6685 739.371851,127.09625 740.085956,127.09625 Z M705.547135,125.4005 C706.26124,125.4005 706.841784,125.96925 706.841784,126.67275 C706.841784,127.37625 706.26124,127.945 705.547135,127.945 C704.831249,127.945 704.250705,127.37625 704.250705,126.67275 C704.250705,125.96925 704.831249,125.4005 705.547135,125.4005 Z M630.054836,70.7386467 C631.734151,70.7386467 633.09938,72.1021422 633.09938,73.7835078 C633.09938,75.4007915 631.829926,76.7225046 630.233513,76.8148498 L630.054836,76.8200038 L565.014316,76.8200038 C557.839865,76.8200038 551.983777,82.5703586 551.817924,89.6967347 L551.814312,90.0074308 L551.814312,107.000934 C551.814312,114.166276 557.567908,120.014929 564.703227,120.180571 L565.014316,120.184179 L630.059024,120.184179 C631.738339,120.184179 633.103568,121.543492 633.103568,123.220675 C633.103568,124.846025 631.834114,126.168026 630.237701,126.260381 L630.059024,126.265536 L565.014316,126.265536 C554.490417,126.265536 545.913634,117.807362 545.73234,107.339303 L545.729412,107.000934 L545.729412,90.0074308 C545.729412,79.4927557 554.194239,70.9227237 564.675519,70.7415725 L565.014316,70.7386467 L630.054836,70.7386467 Z M721.09005,123.703 C721.805935,123.703 722.384699,124.27175 722.384699,124.9735 C722.384699,125.67875 721.805935,126.24925 721.09005,126.24925 C720.374164,126.24925 719.7954,125.67875 719.7954,124.9735 C719.7954,124.27175 720.374164,123.703 721.09005,123.703 Z M714.180504,120.308 C714.898171,120.308 715.476935,120.8785 715.476935,121.58025 C715.476935,122.28375 714.898171,122.85425 714.180504,122.85425 C713.466399,122.85425 712.887636,122.28375 712.887636,121.58025 C712.887636,120.8785 713.466399,120.308 714.180504,120.308 Z M684.822061,120.308 C685.537947,120.308 686.118491,120.8785 686.118491,121.58025 C686.118491,122.28375 685.537947,122.85425 684.822061,122.85425 C684.107956,122.85425 683.529193,122.28375 683.529193,121.58025 C683.529193,120.8785 684.107956,120.308 684.822061,120.308 Z M746.99372,118.6105 C747.711387,118.6105 748.29015,119.181 748.29015,119.8845 C748.29015,120.58625 747.711387,121.15675 746.99372,121.15675 C746.279615,121.15675 745.700852,120.58625 745.700852,119.8845 C745.700852,119.181 746.279615,118.6105 746.99372,118.6105 Z M698.63937,116.91475 C699.353476,116.91475 699.932239,117.4835 699.932239,118.187 C699.932239,118.8905 699.353476,119.45925 698.63937,119.45925 C697.923485,119.45925 697.34294,118.8905 697.34294,118.187 C697.34294,117.4835 697.923485,116.91475 698.63937,116.91475 Z M743.540729,111.82225 C744.256614,111.82225 744.835378,112.39275 744.835378,113.0945 C744.835378,113.798 744.256614,114.3685 743.540729,114.3685 C742.824843,114.3685 742.246079,113.798 742.246079,113.0945 C742.246079,112.39275 742.824843,111.82225 743.540729,111.82225 Z M602.830317,95.4614127 C604.509632,95.4614127 605.879049,96.8207257 605.879049,98.5020913 C605.879049,100.123408 604.605701,101.449154 603.009009,101.541782 L602.830317,101.546952 L573.519775,101.546952 C571.832084,101.546952 570.471043,100.183457 570.471043,98.5020913 C570.471043,96.8807744 571.736603,95.5589173 573.340248,95.4665669 L573.519775,95.4614127 L602.830317,95.4614127 Z M738.360351,98.24575 C739.076236,98.24575 739.655,98.81625 739.655,99.518 C739.655,100.2215 739.076236,100.792 738.360351,100.792 C737.644465,100.792 737.06392,100.2215 737.06392,99.518 C737.06392,98.81625 737.644465,98.24575 738.360351,98.24575 Z M753.709157,57 C755.314749,57 756.632217,58.2383237 756.724274,59.7954686 L756.729412,59.96975 L756.729412,65.0605 C756.729412,66.49354 755.688894,67.6798216 754.313704,67.9566775 L754.140113,67.9865 L754.140113,96.718 C754.140113,97.4215 753.559569,97.99375 752.843683,97.99375 C752.17421,97.99375 751.622124,97.4907959 751.555728,96.8482605 L751.549034,96.718 L751.549034,87.128 C749.107542,86.41225 745.604688,86.49625 743.439222,87.39225 C741.911287,88.024 739.947053,88.34075 737.9846,88.34075 C736.865805,88.34075 735.756555,88.2282031 734.721271,88.0195225 L734.282294,87.92425 L734.282294,92.336 C734.282294,93.036 733.699969,93.60825 732.985864,93.60825 C732.316391,93.60825 731.76274,93.1052959 731.696148,92.4656444 L731.689434,92.336 L731.689434,67.9865 C730.28929,67.78658 729.191125,66.6496232 729.105512,65.2382969 L729.100136,65.0605 L729.100136,59.96975 C729.100136,58.39025 730.361917,57.0955156 731.946595,57.0050493 L732.123952,57 L753.709157,57 Z M714.663104,57 C716.270413,57 717.586287,58.2383237 717.678227,59.7954686 L717.683359,59.96975 L717.683359,65.0605 C717.683359,66.64 716.424889,67.9347344 714.840447,68.0252007 L714.663104,68.03025 L695.202406,68.03025 L695.202406,79.7955 C695.202406,83.07325 693.355705,86.1305 690.383533,87.77025 C687.47725,89.37675 684.914663,91.46275 682.763444,93.9775 C682.507007,94.27675 682.14016,94.429 681.771533,94.429 C681.475918,94.429 681.180303,94.33275 680.938113,94.12975 C680.391404,93.68 680.320172,92.87675 680.781402,92.33775 C683.132072,89.59025 685.936849,87.3065 689.115595,85.55125 C691.195137,84.4020625 692.514629,82.3123348 692.606226,80.0477959 L692.611327,79.7955 L692.611327,67.983 C691.224859,67.76964 690.145294,66.636984 690.061148,65.2368612 L690.055863,65.0605 L690.055863,59.96975 C690.055863,58.39025 691.314333,57.0955156 692.900372,57.0050493 L693.077899,57 L714.663104,57 Z M745.268115,91.4575 C745.984001,91.4575 746.562764,92.02625 746.562764,92.72975 C746.562764,93.43325 745.984001,94.002 745.268115,94.002 C744.552229,94.002 743.973466,93.43325 743.973466,92.72975 C743.973466,92.02625 744.552229,91.4575 745.268115,91.4575 Z M751.549034,68.03025 L734.282294,68.03025 L734.282294,85.2975 C736.723786,86.02725 740.255133,85.9485 742.434845,85.0455 C744.83832,84.0528696 748.300855,83.8560028 751.162666,84.4227379 L751.549034,84.50475 L751.549034,68.03025 Z M714.663104,59.5445 L693.077899,59.5445 C692.868951,59.5445 692.68955,59.6979815 692.652263,59.8943272 L692.645162,59.96975 L692.645162,65.0605 C692.645162,65.2642778 692.801346,65.4404012 693.001148,65.477024 L693.077899,65.484 L714.663104,65.484 C714.87047,65.484 715.049694,65.3305185 715.086961,65.1354019 L715.09406,65.0605 L715.09406,59.96975 C715.09406,59.73875 714.89639,59.5445 714.663104,59.5445 Z M753.709157,59.5445 L732.123952,59.5445 C731.915003,59.5445 731.734196,59.6979815 731.696596,59.8943272 L731.689434,59.96975 L731.689434,65.0605 C731.689434,65.2642778 731.847025,65.4404012 732.04714,65.477024 L732.123952,65.484 L753.709157,65.484 C753.916523,65.484 754.095747,65.3305185 754.133014,65.1354019 L754.140113,65.0605 L754.140113,59.96975 C754.140113,59.73875 753.942443,59.5445 753.709157,59.5445 Z M704.438868,0 C714.962767,0 723.54365,8.4622678 723.72503,18.9304142 L723.72796,19.2687841 L723.72796,24.0912083 C723.72796,25.7725738 722.366919,27.1360693 720.683416,27.1360693 C719.056,27.1360693 717.732318,25.8682272 717.639845,24.2700906 L717.634684,24.0912083 L717.634684,19.2687841 C717.634684,12.1034421 711.885157,6.2547892 704.749954,6.08914715 L704.438868,6.08553959 L565.014316,6.08553959 C557.839865,6.08553959 551.983777,11.8318305 551.817924,18.9580905 L551.814312,19.2687841 L551.814312,36.2622874 C551.814312,43.4276294 557.567908,49.2803462 564.703227,49.4461043 L565.014316,49.4497144 L642.836058,49.4497144 C644.523749,49.4497144 645.88479,50.8048449 645.88479,52.4862105 C645.88479,54.1075273 644.61923,55.4332735 643.015585,55.5259017 L642.836058,55.5310715 L565.014316,55.5310715 C554.490417,55.5310715 545.913634,47.0688037 545.73234,36.6006573 L545.729412,36.2622874 L545.729412,19.2687841 C545.729412,8.75824699 554.194239,0.184164967 564.675519,0.00292720313 L565.014316,0 L704.438868,0 Z M642.79418,25.6094563 C643.372099,26.1866415 643.707124,26.9478567 643.707124,27.767627 C643.707124,28.5581198 643.372099,29.3527951 642.79418,29.9299803 C642.241388,30.4737054 641.44989,30.8083056 640.658393,30.8083056 C639.866895,30.8083056 639.075397,30.4737054 638.497478,29.9299803 C637.923747,29.3527951 637.613849,28.5581198 637.613849,27.767627 C637.613849,26.9729517 637.923747,26.1866415 638.497478,25.6094563 C639.653316,24.4843634 641.663469,24.4843634 642.79418,25.6094563 Z M666.761065,24.7269485 C668.436193,24.7269485 669.809797,26.0988089 669.809797,27.767627 C669.809797,29.4406276 668.436193,30.8083056 666.761065,30.8083056 C665.085938,30.8083056 663.716521,29.4406276 663.716521,27.767627 C663.716521,26.0988089 665.085938,24.7269485 666.761065,24.7269485 Z M653.695071,24.7269485 C655.399514,24.7269485 656.743803,26.0988089 656.743803,27.767627 C656.743803,29.4406276 655.399514,30.8083056 653.695071,30.8083056 C652.019944,30.8083056 650.650527,29.4406276 650.650527,27.767627 C650.650527,26.0988089 652.019944,24.7269485 653.695071,24.7269485 Z M681.962846,25.6094563 C682.536577,26.1866415 682.871603,26.9729517 682.871603,27.767627 C682.871603,28.5581198 682.536577,29.3527951 681.962846,29.9299803 C681.410054,30.4737054 680.618557,30.8083056 679.827059,30.8083056 C679.006246,30.8083056 678.214749,30.4737054 677.661957,29.9007027 C677.084038,29.3527951 676.778327,28.5873973 676.778327,27.767627 C676.778327,26.9478567 677.084038,26.1866415 677.661957,25.6094563 C678.792668,24.4843634 680.832135,24.4843634 681.962846,25.6094563 Z M602.830317,24.722766 C604.509632,24.722766 605.879049,26.0862614 605.879049,27.767627 C605.879049,29.3889438 604.605701,30.7069119 603.009009,30.7989845 L602.830317,30.8041231 L573.519775,30.8041231 C571.832084,30.8041231 570.471043,29.4489926 570.471043,27.767627 C570.471043,26.1463102 571.736603,24.820564 573.340248,24.7279358 L573.519775,24.722766 L602.830317,24.722766 Z" id="Combined-Shape-Copy-8" fill="url(#linearGradient-3)"></path> </g> </svg> 