<svg xmlns="http://www.w3.org/2000/svg" xmlns:xlink="http://www.w3.org/1999/xlink" width="20" height="100" viewBox="0 0 20 100"> <title>Combined Shape</title> <g id="Images" stroke="none" stroke-width="1" fill="none" fill-rule="evenodd"> <path d="M0,8.854 L16.9683535,8.854 L8.854,0 L10.298,0 L18.4123535,8.854 L19.152,9.63183594 L18.4123535,10.298 L10.298,19.152 L8.854,19.152 L16.9683535,10.298 L0,10.298 L0,8.854 Z M0,48.854 L16.9683535,48.854 L8.854,40 L10.298,40 L18.4123535,48.854 L19.152,49.6318359 L18.4123535,50.298 L10.298,59.152 L8.854,59.152 L16.9683535,50.298 L0,50.298 L0,48.854 Z M0,88.854 L16.9683535,88.854 L8.854,80 L10.298,80 L18.4123535,88.854 L19.152,89.6318359 L18.4123535,90.298 L10.298,99.152 L8.854,99.152 L16.9683535,90.298 L0,90.298 L0,88.854 Z" id="Combined-Shape" fill="#1F2021"/> </g> </svg>