<svg width="16" height="16" viewBox="0 0 16 16" xmlns="http://www.w3.org/2000/svg">
    <g fill="none" fill-rule="evenodd">
        <path fill="none" d="M0 0h16v16H0z"/>
        <path d="M.667 5.867V14c0 .733.6 1.333 1.333 1.333h7.434V14H3.003A1.001 1.001 0 0 1 2 13.003V5.867H.667zM12.889 0H5.11C4.5 0 4 .6 4 1.333v9.334C4 11.4 4.5 12 5.111 12h7.778C13.5 12 14 11.4 14 10.667V1.333C14 .6 13.5 0 12.889 0zM6.112 10.667c-.553 0-1-.45-1-1V2.333c0-.551.44-.999 1-.999h5.776c.553 0 1 .45 1 1v7.335c0 .551-.44.999-1 .999H6.112z" fill="#302361" opacity=".371"/>
    </g>
</svg>
