<svg width="18" height="18" viewBox="0 0 18 18" xmlns="http://www.w3.org/2000/svg">
    <defs>
        <linearGradient x1="100%" y1="0%" x2="50%" y2="100%" id="0f9adlopga">
            <stop stop-color="#4F81FD" offset="0%"/>
            <stop stop-color="#7C06F9" offset="100%"/>
        </linearGradient>
    </defs>
    <g fill="none" fill-rule="evenodd">
        <path d="M9 0a9 9 0 1 1 0 18A9 9 0 0 1 9 0zm0 .783a8.217 8.217 0 1 0 0 16.434A8.217 8.217 0 0 0 9 .783zM9 6.26a2.74 2.74 0 1 1 0 5.478 2.74 2.74 0 0 1 0-5.478zm0 .782a1.957 1.957 0 1 0 0 3.914 1.957 1.957 0 0 0 0-3.914z" fill="url(#0f9adlopga)"/>
        <path d="M9 1.68c-1.55 0-2.67.779-4.095 2.468L4.208 5l-.177.205-.34.373-.448.483C2.127 7.283 1.598 8.139 1.598 9.118c0 1.102.566 1.778 1.982 2.788l.651.456.278.202.231.178c.141.113.258.217.366.324.18.18.362.396.59.7l.46.63c1.115 1.539 1.824 2.16 2.961 2.16 1.176 0 2.19-.583 3.46-1.76l.316-.299.733-.717c1.32-1.278 2.26-3.324 2.26-5.114 0-1.317-.52-1.97-1.841-2.765l-.545-.318-.307-.185a6.138 6.138 0 0 1-.372-.251l-.11-.083a6.365 6.365 0 0 0-.322-.234c-.157-.107-.328-.282-.532-.54l-.178-.235-.412-.578C10.362 2.191 9.827 1.68 9 1.68zm0 .782c.433 0 .836.364 1.512 1.304l.454.64.161.22c.3.396.552.666.82.85l.1.07.183.135c.207.161.422.306.7.473l.545.32c1.234.716 1.63 1.17 1.63 2.192 0 1.5-.777 3.256-1.872 4.4l-.993.974c-1.231 1.174-2.148 1.734-3.123 1.734-.717 0-1.253-.413-2.072-1.493l-.599-.818c-.31-.421-.543-.708-.79-.953a6.074 6.074 0 0 0-.665-.563l-.3-.218-.473-.331c-1.349-.942-1.837-1.485-1.837-2.28 0-.675.403-1.367 1.28-2.353l.847-.92.21-.237.176-.21.443-.546C6.707 3.187 7.694 2.462 9 2.462z" fill="#B1A4FF"/>
        <path d="m10.002 2.027-.442 3.1a3.96 3.96 0 0 0-.56-.04v-3.13c.337 0 .672.023 1.002.07zm3.656 1.69-2.071 2.347a3.935 3.935 0 0 0-.445-.34l1.716-2.617c.281.184.548.388.8.61zm2.134 3.412-3.019.83a3.872 3.872 0 0 0-.186-.525l2.868-1.255c.135.307.247.625.337.95zm-.054 3.929-2.994-.914c.054-.177.095-.359.124-.544l3.094.475a7.01 7.01 0 0 1-.224.983zm-2.205 3.333-2.015-2.395c.143-.12.277-.251.402-.39l2.334 2.085c-.223.25-.464.484-.72.7zm-3.776 1.612-.334-3.112c.187-.02.37-.054.55-.1l.775 3.034a7.023 7.023 0 0 1-.991.178zm-3.828-.663 1.366-2.816c.168.08.34.15.518.206l-.948 2.984a7.007 7.007 0 0 1-.936-.374zm-2.961-2.702 2.68-1.619c.096.16.204.313.322.458L3.548 13.46a7.058 7.058 0 0 1-.58-.822zm2.12-3.762-.001.126c0 .147.008.293.024.437L2 9.785a7.107 7.107 0 0 1-.043-.782l.003-.225 3.129.098zM3.217 4.98 5.785 6.77a3.91 3.91 0 0 0-.286.48L2.701 5.845c.15-.3.323-.59.515-.865zm3.14-2.51L7.532 5.37c-.173.07-.34.153-.501.246L5.452 2.914c.29-.17.592-.318.904-.444z" fill-opacity=".27" fill="#000" fill-rule="nonzero"/>
    </g>
</svg>
