<?xml version="1.0" encoding="UTF-8"?> <svg xmlns="http://www.w3.org/2000/svg" xmlns:xlink="http://www.w3.org/1999/xlink" width="156px" height="156px" viewBox="0 0 156 156"> <title>znak_small</title> <defs> <circle id="path-1" cx="76" cy="76" r="76"></circle> </defs> <g id="znak_small" stroke="none" stroke-width="1" fill="none" fill-rule="evenodd"> <g id="model/big_w-copy-3" transform="translate(2.000000, 2.000000)"> <mask id="mask-2" fill="white"> <use xlink:href="#path-1" transform="translate(76.000000, 76.000000) scale(-1, 1) translate(-76.000000, -76.000000) "></use> </mask> <circle stroke="#000000" stroke-width="2" cx="76" cy="76" r="77"></circle> <g id="Group" mask="url(#mask-2)" stroke="#000000"> <g transform="translate(-7.169811, -29.874214)"> <path d="M59.5896337,85.6718173 L90.1347454,103.307046 L90.1347454,138.577503 L59.5896337,156.212731 L29.0445219,138.577503 L29.0445219,103.307046 L59.5896337,85.6718173 Z" id="Polygon-Copy-5" fill-opacity="0.17501639" fill="#FFFFFF" fill-rule="evenodd"></path> <path d="M75.5718522,61.266484 L103.553353,77.4239097 M119.034279,105.113557 L119.034279,136.89941 M103.265545,164.202729 L59.5171395,189.464476 L0,155.09735 L0,86.3630984 L43.7203116,61.117573" id="Shape" fill="none" stroke-dasharray="2,2"></path> <path d="M59.2370323,36.6587829 C60.2143191,36.6587829 60.9239018,36.1142121 61.3657804,35.0250707 L72.9752153,41.6945185 C72.4585778,42.6593636 72.4244103,43.5146159 72.8727128,44.2602757 C73.3210153,45.0059355 74.1039872,45.3643606 75.2216283,45.335551 L75.2216283,61.3508752 L61.3064497,69.3449386 C60.6460494,68.3899572 59.9562436,67.9066937 59.2370323,67.895148 C58.517821,67.8836024 57.7883557,68.3440822 57.0486364,69.2765872 L43.2524363,61.3508752 L43.2524363,45.6451128 C44.3558669,45.7045678 45.1610245,45.3693975 45.6679088,44.6396019 C46.1747932,43.9098062 46.1062959,42.9281118 45.462417,41.6945185 L56.9799131,35.098818 C57.5073725,36.1387946 58.2597456,36.6587829 59.2370323,36.6587829 Z" id="Polygon-Copy-7" fill-opacity="0.115548514" fill="#000000" fill-rule="evenodd"></path> <line x1="59.3558395" y1="85.094467" x2="59.3532927" y2="72.6358849" id="Path" fill="none"></line> <line x1="59.3553042" y1="31.969192" x2="59.353828" y2="21.156083" id="Path" fill="none"></line> <line x1="30.3237189" y1="35.4952059" x2="41.8420308" y2="42.0770983" id="Path" fill="none"></line> <line x1="86.7399402" y1="36.2004086" x2="76.8671014" y2="41.8420308" id="Path" fill="none"></line> <circle id="Oval" fill="none" cx="59.4720999" cy="70.285209" r="2.35067589"></circle> <circle id="Oval-Copy-14" fill="none" cx="43.9576391" cy="43.2524363" r="2.35067589"></circle> <circle id="Oval-Copy-13" fill="none" cx="74.9865607" cy="43.0173687" r="2.35067589"></circle> <circle id="Oval-Copy-12" fill="none" cx="59.4720999" cy="34.3198679" r="2.35067589"></circle> <circle id="Oval-Copy-32" fill="none" cx="21.7437519" cy="29.5009824" r="10.1955753"></circle> <circle id="Oval-Copy-33" fill-opacity="0.17501639" fill="#FFFFFF" fill-rule="evenodd" cx="95.0848396" cy="29.5009824" r="10.1955753"></circle> <path d="M118.782666,71.2607033 C119.756338,71.2607033 120.463296,70.7154412 120.90354,69.6249169 L132.470029,76.3028326 C131.955303,77.2689027 131.921262,78.125241 132.367906,78.8718475 C132.81455,79.618454 133.594626,79.9773341 134.708132,79.948488 L134.708132,95.9841463 L120.844429,103.988359 C120.186471,103.032165 119.499217,102.548288 118.782666,102.536728 C118.066116,102.525168 117.339349,102.986232 116.602366,103.919921 L102.8572,95.9841463 L102.8572,80.2584428 C103.956549,80.3179733 104.758728,79.9823775 105.263738,79.2516552 C105.768747,78.520933 105.700503,77.5379921 105.059006,76.3028326 L116.533897,69.6987578 C117.059405,70.7400548 117.808995,71.2607033 118.782666,71.2607033 Z" id="Polygon-Copy-7" fill-opacity="0.115548514" fill="#000000" fill-rule="evenodd" transform="translate(118.782666, 86.806638) rotate(60.000000) translate(-118.782666, -86.806638) "></path> <line x1="95.8549936" y1="106.398574" x2="95.851856" y2="93.8192471" id="Path" fill="none" transform="translate(95.853425, 100.108910) rotate(60.000000) translate(-95.853425, -100.108910) "></line> <line x1="140.990866" y1="79.4364586" x2="140.989048" y2="68.669717" id="Path" fill="none" transform="translate(140.989957, 74.053088) rotate(60.000000) translate(-140.989957, -74.053088) "></line> <line x1="113.029763" y1="56.5311291" x2="124.610959" y2="63.2175356" id="Path" fill="none" transform="translate(118.820361, 59.874332) rotate(60.000000) translate(-118.820361, -59.874332) "></line> <line x1="146.264544" y1="96.8909712" x2="136.47038" y2="102.545634" id="Path" fill="none" transform="translate(141.367462, 99.718303) rotate(60.000000) translate(-141.367462, -99.718303) "></line> <circle id="Oval" fill="none" transform="translate(103.108211, 95.751350) rotate(60.000000) translate(-103.108211, -95.751350) " cx="103.108211" cy="95.7513497" r="2.31674257"></circle> <circle id="Oval-Copy-14" fill="none" transform="translate(118.757912, 68.993162) rotate(60.000000) translate(-118.757912, -68.993162) " cx="118.757912" cy="68.9931622" r="2.31674257"></circle> <circle id="Oval-Copy-13" fill="none" transform="translate(134.501923, 95.683403) rotate(60.000000) translate(-134.501923, -95.683403) " cx="134.501923" cy="95.683403" r="2.31674257"></circle> <circle id="Oval-Copy-12" fill="none" transform="translate(134.206759, 77.796595) rotate(60.000000) translate(-134.206759, -77.796595) " cx="134.206759" cy="77.7965947" r="2.31674257"></circle> <circle id="Oval-Copy-30" fill-opacity="0.17501639" fill="#FFFFFF" fill-rule="evenodd" transform="translate(154.771927, 65.923289) rotate(60.000000) translate(-154.771927, -65.923289) " cx="154.771927" cy="65.923289" r="10.2149344"></circle> <circle id="Oval-Copy-32" fill-opacity="0.17501639" fill="#FFFFFF" fill-rule="evenodd" transform="translate(119.646736, 42.731739) rotate(60.000000) translate(-119.646736, -42.731739) " cx="119.646736" cy="42.7317395" r="10.2149344"></circle> <circle id="Oval-Copy-33" fill-opacity="0.17501639" fill="#FFFFFF" fill-rule="evenodd" transform="translate(156.280228, 106.182809) rotate(60.000000) translate(-156.280228, -106.182809) " cx="156.280228" cy="106.182809" r="10.2149344"></circle> <path d="M118.836582,139.398113 C119.810254,139.398113 120.517212,138.852851 120.957456,137.762327 L132.523945,144.440243 C132.009219,145.406313 131.975178,146.262651 132.421822,147.009258 C132.868466,147.755864 133.648542,148.114744 134.762049,148.085898 L134.762049,164.121556 L120.898345,172.125769 C120.240387,171.169576 119.553133,170.685698 118.836582,170.674138 C118.120032,170.662578 117.393265,171.123642 116.656282,172.057331 L102.911116,164.121556 L102.911116,148.395853 C104.010465,148.455383 104.812644,148.119788 105.317654,147.389065 C105.822663,146.658343 105.754419,145.675402 105.112922,144.440243 L116.587813,137.836168 C117.113321,138.877465 117.862911,139.398113 118.836582,139.398113 Z" id="Polygon-Copy-7" fill-opacity="0.115548514" fill="#000000" fill-rule="evenodd" transform="translate(118.836582, 154.944048) rotate(120.000000) translate(-118.836582, -154.944048) "></path> <line x1="95.8534248" y1="148.027542" x2="95.8502871" y2="135.448215" id="Path" fill="none" transform="translate(95.851856, 141.737879) rotate(120.000000) translate(-95.851856, -141.737879) "></line> <line x1="140.986036" y1="173.182722" x2="140.984217" y2="162.41598" id="Path" fill="none" transform="translate(140.985126, 167.799351) rotate(120.000000) translate(-140.985126, -167.799351) "></line> <line x1="136.388893" y1="138.167336" x2="147.970088" y2="144.853743" id="Path" fill="none" transform="translate(142.179491, 141.510539) rotate(120.000000) translate(-142.179491, -141.510539) "></line> <line x1="123.844233" y1="178.131556" x2="114.050069" y2="183.786219" id="Path" fill="none" transform="translate(118.947151, 180.958887) rotate(120.000000) translate(-118.947151, -180.958887) "></line> <circle id="Oval" fill="none" transform="translate(103.253007, 145.841927) rotate(120.000000) translate(-103.253007, -145.841927) " cx="103.253007" cy="145.841927" r="2.31674257"></circle> <circle id="Oval-Copy-14" fill="none" transform="translate(134.251128, 146.015872) rotate(120.000000) translate(-134.251128, -146.015872) " cx="134.251128" cy="146.015872" r="2.31674257"></circle> <circle id="Oval-Copy-13" fill="none" transform="translate(119.008707, 172.995706) rotate(120.000000) translate(-119.008707, -172.995706) " cx="119.008707" cy="172.995706" r="2.31674257"></circle> <circle id="Oval-Copy-12" fill="none" transform="translate(134.351555, 163.796682) rotate(120.000000) translate(-134.351555, -163.796682) " cx="134.351555" cy="163.796682" r="2.31674257"></circle> <circle id="Oval-Copy-30" fill="none" transform="translate(154.916724, 175.669988) rotate(120.000000) translate(-154.916724, -175.669988) " cx="154.916724" cy="175.669988" r="10.2149344"></circle> <circle id="Oval-Copy-32" fill-opacity="0.17501639" fill="#FFFFFF" fill-rule="evenodd" transform="translate(157.438599, 133.654905) rotate(120.000000) translate(-157.438599, -133.654905) " cx="157.438599" cy="133.654905" r="10.2149344"></circle> <circle id="Oval-Copy-33" fill="none" transform="translate(120.805107, 197.105974) rotate(120.000000) translate(-120.805107, -197.105974) " cx="120.805107" cy="197.105974" r="10.2149344"></circle> <line x1="0.470135177" y1="86.5048726" x2="90.5010216" y2="138.689877" id="Path" fill="none"></line> <line x1="59.3650796" y1="189.229409" x2="59.3440526" y2="85.3295346" id="Path" fill="none"></line> <line x1="90.5010216" y1="103.194671" x2="0.235067589" y2="155.144608" id="Path" fill="none"></line> </g> </g> </g> </g> </svg> 