<svg width="710" height="710" viewBox="0 0 710 710" xmlns="http://www.w3.org/2000/svg">
    <path d="M703.762 357.119c0 4.842 3.499 9.692 3.303 14.487-.197 4.838-1.36 9.61-1.753 14.393-.394 4.824 1.397 9.895.809 14.662-.593 4.801-2.492 9.463-3.277 14.203-.79 4.77-8.83 8.058-9.811 12.762-.989 4.733-2.632 9.017-3.809 13.677-1.182 4.687 6.274 11.628 4.904 16.237-1.377 4.631 2.473 11.138.91 15.687-1.567 4.568-8.226 7.486-9.976 11.968-1.758 4.498-8.945 6.716-10.88 11.122-1.942 4.42 4.877 12.972 2.76 17.294-2.124 4.336-3.384 9.44-5.679 13.672-2.301 4.242-6.315 7.829-8.783 11.963-2.474 4.142-9.412 5.655-12.05 9.684-2.642 4.037-8.424 5.871-11.226 9.789-2.807 3.922-3.433 9.396-6.394 13.196-2.966 3.804-2.534 10.484-5.65 14.158-3.119 3.678-6.836 7.056-10.1 10.6-3.267 3.546-5.419 8.438-8.827 11.847-3.409 3.408-15.323-2.066-18.868 1.2-3.545 3.265 1.699 16.494-1.98 19.613-3.674 3.115-16.705-5.3-20.508-2.337-3.8 2.963 1.683 18.362-2.24 21.168-3.918 2.802-14.732-4.33-18.767-1.687-4.03 2.637-3.846 12.006-7.99 14.481-4.132 2.468-7.179 7.294-11.421 9.595-4.233 2.295-14.985-8.085-19.319-5.962-4.323 2.117-3.234 15.792-7.654 17.733-4.406 1.936-8.92 4.226-13.418 5.982-4.48 1.75-11.25-2.406-15.82-.839-4.549 1.562-7.46 8.59-12.092 9.969-4.61 1.37-9.628 2.061-14.314 3.243-4.66 1.178-11.25-5.885-15.983-4.898-4.703.98-7.738 11.18-12.51 11.97-4.737.785-10.089-1.321-14.89-.728-4.767.588-9.643 1.487-14.467 1.881-4.784.391-10.153-9.777-14.99-9.58-4.796.194-9.32 5.644-14.162 5.644-4.843 0-9.62.783-14.415.588-4.837-.197-9.478-2.067-14.262-2.457-4.824-.395-9.576-.355-14.342-.943-4.802-.593-9.502-1.175-14.241-1.96-4.771-.791-11.342 7.51-16.046 6.53-4.733-.988-6.097-16.524-10.757-17.701-4.687-1.183-12.19 8.239-16.8 6.869-4.631-1.378-9.011-3.921-13.562-5.482-4.568-1.569-10.954 1.246-15.434-.504-4.498-1.756-7.812-6.958-12.218-8.894-4.42-1.942-10.408-1.033-14.731-3.15-4.335-2.123-4.106-13.28-8.338-15.576-4.242-2.3-6.145-8.285-10.279-10.753-4.142-2.475-14.63 5.281-18.659 2.644-4.035-2.643-1.125-15.351-5.043-18.155-3.924-2.805-9.824-2.599-13.624-5.561-3.803-2.964-8.29-4.908-11.965-8.023-3.678-3.119-5.46-8.173-9.004-11.437-3.545-3.267-9.135-4.22-12.544-7.628-3.408-3.409-8.58-5.113-11.844-8.66-3.267-3.545-5.264-8.224-8.383-11.901-3.115-3.677-3.134-9.743-6.098-13.547-2.963-3.8-6.715-6.818-9.522-10.742-2.802-3.918-9.403-5.2-12.044-9.236-2.639-4.029-7.809-6.63-10.282-10.773-2.468-4.134-1.93-10.122-4.23-14.364-2.296-4.231-2.36-9.618-4.483-13.952-2.117-4.323-6.397-7.648-8.34-12.068-1.933-4.406-2.88-9.263-4.635-13.762-1.75-4.48-6.19-8.061-7.758-12.63-1.56-4.548 3.999-11.366 2.622-15.998-1.37-4.607-1.77-9.295-2.954-13.982-1.176-4.66.019-9.615-.968-14.347-.98-4.704-5.185-8.582-5.975-13.354-.785-4.74-11.49-8.109-12.082-12.91-.588-4.765 3.131-10.16 2.737-14.983-.391-4.784-4.635-9.514-4.83-14.35-.196-4.797 2.487-9.855 2.487-14.697 0-4.843 1.99-9.711 2.186-14.506.197-4.837 3.503-9.45 3.894-14.236.395-4.823 2.976-9.286 3.564-14.05.592-4.802-7.021-10.783-6.236-15.522.79-4.771-.898-10.236.082-14.94.987-4.733 7.354-8.402 8.53-13.062 1.185-4.685 7.898-7.792 9.268-12.402 1.377-4.63 5.852-8.016 7.415-12.567 1.567-4.567-5.005-11.988-3.257-16.47 1.758-4.498 5.424-8.222 7.36-12.628 1.943-4.421 1.718-9.88 3.835-14.2 2.124-4.337-.516-11.35 1.779-15.583 2.301-4.242 16.445-1.78 18.913-5.914 2.475-4.142-.522-11.577 2.116-15.606 2.643-4.035 9.083-5.386 11.885-9.306 2.807-3.922-3.415-14.68-.454-18.48 2.964-3.803 7.552-6.636 10.667-10.313 3.119-3.677 11.88-2.482 15.144-6.027 3.266-3.545 7.35-6.184 10.76-9.591 3.408-3.408 1.872-12.024 5.418-15.29 3.546-3.265 8.532-5.126 12.21-8.243 3.674-3.116 8.217-5.306 12.02-8.27 3.799-2.963 10.717-1.68 14.64-4.486 3.917-2.802 4.44-10.526 8.476-13.168 4.029-2.636 13.16 3.06 17.302.587 4.134-2.469 7.047-6.572 11.289-8.874 4.232-2.295 6.508-8.117 10.844-10.24 4.322-2.117 7.37-7.054 11.792-8.994 4.404-1.936 7.618-7.205 12.115-8.961 4.48-1.75 9.448-2.872 14.015-4.44 4.55-1.562 10.525.872 15.157-.505 4.607-1.37 9.592-1.49 14.277-2.674 4.66-1.177 7.958-8.92 12.691-9.907 4.703-.98 9.695-2.012 14.466-2.802 4.74-.785 11.325 10.96 16.126 10.369 4.765-.588 8.775-7.728 13.597-8.122 4.786-.39 9.55-2.68 14.387-2.876 4.795-.196 9.73 2.422 14.573 2.422s9.648.585 14.443.78c4.836.196 10.277-7.398 15.062-7.007 4.824.394 8.92 9.084 13.686 9.672 4.802.593 9.643.682 14.382 1.467 4.772.79 10.905-5.027 15.608-4.044 4.733.987 9.225 4.033 13.885 5.21 4.687 1.184 7.449 9.504 12.057 10.876 4.631 1.376 7.794 6.684 12.344 8.245 4.568 1.569 12.521-6.302 17.002-4.552 4.5 1.758 5.548 11.719 9.952 13.654 4.422 1.941 7.787 5.53 12.11 7.647 4.334 2.123 13.702-5.655 17.932-3.36 4.244 2.3 2.723 14.58 6.857 17.048 4.142 2.474 9.39 2.705 13.419 5.343 4.037 2.643 7.616 5.588 11.534 8.39 3.923 2.805 13.3-1.729 17.1 1.232 3.803 2.966 8.554 5.076 12.229 8.192 3.677 3.118 7.165 6.778 10.709 10.043 3.546 3.266 7.696 6.225 11.105 9.633 3.407 3.41 2.482 11.135 5.748 14.681 3.265 3.546 11.646 2.745 14.764 6.423 3.115 3.674-4.525 16.082-1.56 19.886 2.962 3.8 11.284 3.409 14.09 7.333 2.801 3.918 8.22 6.116 10.862 10.151 2.637 4.031 6.428 7.521 8.9 11.665 2.47 4.134-4.65 13.678-2.348 17.92 2.295 4.232 7.185 6.898 9.309 11.232 2.117 4.323 12.594 4.825 14.536 9.247 1.936 4.406 3.323 9.296 5.08 13.794 1.75 4.482.883 10.104 2.45 14.671 1.563 4.55 1.943 9.572 3.32 14.203 1.37 4.61 6.27 8.398 7.455 13.084 1.176 4.66-2.395 10.54-1.408 15.274.982 4.702 8.291 8.387 9.083 13.158.783 4.738-4.589 10.537-3.996 15.339.588 4.766 3.08 9.422 3.475 14.244.39 4.785.758 9.7.96 14.536.189 4.797-5.214 9.724-5.214 14.567z" stroke="#00C5FF" stroke-width="2" fill="none" fill-rule="evenodd" opacity=".588"/>
</svg>
