<?xml version="1.0" encoding="UTF-8"?><svg xmlns="http://www.w3.org/2000/svg" xmlns:xlink="http://www.w3.org/1999/xlink" viewBox="0 0 5533.77 5532.61"><defs><style>.cls-1{fill:#fff;}.cls-2{fill:url(#linear-gradient);mix-blend-mode:multiply;}.cls-3{isolation:isolate;}.cls-4{fill:#5498ee;}</style><linearGradient id="linear-gradient" x1="1913.22" y1="2168.47" x2="4031.39" y2="4286.64" gradientUnits="userSpaceOnUse"><stop offset="0" stop-color="#999"/><stop offset="1" stop-color="#fff"/></linearGradient></defs><g class="cls-3"><g id="Layer_2"><g id="Layer_1-2"><g><path class="cls-4" d="M5373.52,3686.45c-29.35,82.76-62.32,163.37-98.68,241.69-339.32,730.98-973.87,1262.89-1716.89,1487.01-145.3,43.83-294.75,75.89-446.95,95.37C1509.53,5715.45,0,4470.52,0,2765,0,1237.93,1237.93,0,2765,0c1908.41,0,3244.47,1893.67,2608.52,3686.45Z"/><path class="cls-2" d="M5274.84,3928.14c-339.32,730.98-973.87,1262.89-1716.89,1487.01l-1679.41-1679.41c-12.71-18.55-19-41.71-15.86-66.05l86.45-670.13c15.39-119.41,117.07-208.82,237.47-208.82h269.26c-12.66-12.66-225.66-225.66-238.37-238.37-241.02-186.5-302.39-517.63-157.98-774.8,170.07-302.88,555.68-397.92,844.94-219.82,21.09,21.09,2349.26,2349.26,2370.39,2370.39Z"/><g><g><path class="cls-1" d="M3169.05,3262l-32.83,515.31h-262.14c-20.64-220.91,101.62-424.46,294.97-515.31Z"/><path class="cls-1" d="M3185.49,3003.86c0,.08-13.28,208.37-13.28,208.45-211.75,87.48-363.69,307.89-342.34,565h-790.96l-49.27-773.45c-7.36-115.45,84.29-213.12,199.96-213.12h795.93c115.68,0,207.32,97.67,199.96,213.12Z"/><path class="cls-1" d="M3250.09,3186.33c-259,65.5-443.57,309.71-420.22,590.98h-872.57c-57.59,0-101.97-50.62-94.62-107.62l86.45-670.13c15.39-119.41,117.07-208.82,237.47-208.82h801.93c120.39,0,222.07,89.4,237.47,208.82l24.09,186.77Z"/><path class="cls-1" d="M3170.88,3703.14v50.44h109.93c-16.71,14.71-38.68,23.73-62.98,23.73h-343.75c-10.32-111.44,18.25-187.16,18.25-192.23,45.03-154.41,158.32-274.36,297.7-332.38h.01c21.6-9.02,44.91-16.83,65.74-22.3,0,.03,56.67,439.26,56.67,439.29,1.49,11.54,.86,22.81-1.57,33.45h-140Z"/><path class="cls-1" d="M3192.77,2073.47c0,334.26-270.99,605.2-605.2,605.2-193.1,0-367.13-90.68-478.91-235.13-79.18-102.31-126.3-230.69-126.3-370.07,0-107.48,28.02-208.41,77.15-295.9,103.65-184.59,301.29-309.31,528.06-309.31,116.18,0,224.71,32.74,316.88,89.49,80.82,49.77,149.06,118.01,198.83,198.83,56.75,92.17,89.49,200.71,89.49,316.89Z"/></g><path class="cls-1" d="M3190.04,3252.7h-.01c-142.96,59.55-253.65,181.62-297.7,332.38v.08c-.06,0-5.27,19.44-5.28,19.5-12.26,48.16-17.53,102.41-14.22,156.46,16.89,276.12,247.32,483.97,514.91,483.97,284.37,0,515.88-231.38,515.88-515.89,0-365.77-373.43-617.86-713.58-476.5Zm224.59,500.88v199.2h-53.79v-199.2h-189.96v-50.44h189.96v-197.52h53.79v197.52h189.96v50.44h-189.96Z"/></g></g></g></g></g></svg>
