<?xml version="1.0" encoding="UTF-8"?><svg id="Layer_2" xmlns="http://www.w3.org/2000/svg" viewBox="0 0 275.04 82.83"><defs><style>.cls-1{fill:#3377c1;}.cls-2{fill:#bc0a0a;}</style></defs><g id="prepaire"><g><g><path class="cls-1" d="M66.3,81.11h-18.35v-31.76H18.35v31.76H0V5.15H18.35v28.75h29.61V5.15h18.35V81.11Z"/><path class="cls-1" d="M84.86,44.52l-8.91-9.55c6.37-6.01,14.3-9.01,23.82-9.01,8.8,0,15.09,2.24,18.88,6.71,3.79,4.47,5.69,11.64,5.69,21.51v26.93h-16.09v-5.69h-.32c-1.29,2.15-3.33,3.85-6.12,5.1-2.79,1.25-5.79,1.88-9.01,1.88s-6.1-.48-8.85-1.45c-2.75-.97-5.2-2.77-7.35-5.42-2.15-2.65-3.22-5.94-3.22-9.87,0-12.02,11.44-18.02,34.33-18.02v-.86c0-2.5-.89-4.42-2.68-5.74-1.79-1.32-4.11-1.98-6.97-1.98-4.87,0-9.26,1.82-13.2,5.47Zm23.39,15.13v-1.82h-2.25c-10.94,0-16.41,2.43-16.41,7.3,0,1.86,.75,3.24,2.25,4.13,1.5,.9,3.29,1.34,5.36,1.34,3.5,0,6.22-.98,8.15-2.95,1.93-1.97,2.9-4.63,2.9-7.99Z"/><path class="cls-1" d="M152.24,10.62c0,2.72-.98,5.01-2.95,6.87-1.97,1.86-4.34,2.79-7.13,2.79s-5.17-.95-7.13-2.84c-1.97-1.89-2.95-4.17-2.95-6.81s.98-4.83,2.95-6.76c1.97-1.93,4.34-2.9,7.13-2.9s5.17,.95,7.13,2.84c1.97,1.9,2.95,4.17,2.95,6.81Zm-1.29,70.49h-17.59V27.68h17.59v53.43Z"/><path class="cls-1" d="M178.63,81.11h-17.81V0h17.81V81.11Z"/><path class="cls-1" d="M236.35,33.69c5.72,5.15,8.58,11.98,8.58,20.49s-2.86,15.41-8.58,20.71c-5.72,5.29-12.77,7.94-21.13,7.94s-15.31-2.65-21.03-7.94c-5.72-5.29-8.58-12.19-8.58-20.71s2.86-15.34,8.58-20.49c5.72-5.15,12.73-7.72,21.03-7.72s15.41,2.57,21.13,7.72Zm-8.37,20.49c0-3.65-1.14-6.83-3.43-9.55-2.29-2.72-5.4-4.08-9.33-4.08s-7.01,1.34-9.23,4.02c-2.22,2.68-3.33,5.88-3.33,9.6s1.13,6.96,3.38,9.71c2.25,2.75,5.35,4.13,9.28,4.13s7.03-1.38,9.28-4.13c2.25-2.75,3.38-5.99,3.38-9.71Z"/></g><circle class="cls-2" cx="142.04" cy="12.46" r="12.46"/><g><path class="cls-1" d="M257.03,4.99h-4.25v11.95h-3.64V4.99h-4.25V1.89h12.14v3.1Z"/><path class="cls-1" d="M275.04,16.94h-3.55l.09-10.65h-.06l-3.91,10.65h-2.55l-3.81-10.65h-.06l.09,10.65h-3.42V1.89h5.17l3.42,9.65h.09l3.28-9.65h5.25v15.05Z"/></g></g></g></svg>