<svg width="201" height="80" viewBox="0 0 201 80" xmlns="http://www.w3.org/2000/svg">
    <g fill="none" fill-rule="evenodd">
        <g fill="#2800FF" opacity=".328">
            <path d="M101.303.635a2.38 2.38 0 0 0-2.457-.052l-.088.052-13.472 8.422c-1.198.75-1.6 2.391-.897 3.668.688 1.248 2.177 1.685 3.363 1.002l.079-.047 12.2-7.627 12.199 7.627c1.171.733 2.672.34 3.394-.873l.047-.082c.688-1.25.318-2.848-.82-3.618l-.076-.05L101.303.635zM47.553 79.282a2.38 2.38 0 0 1-2.457.053l-.088-.053-13.471-8.422c-1.198-.749-1.6-2.39-.897-3.667.688-1.249 2.177-1.685 3.363-1.003l.079.047 12.199 7.627 12.2-7.627c1.171-.732 2.671-.339 3.394.874l.047.082c.687 1.249.318 2.847-.82 3.617l-.077.05-13.472 8.422zM155.328 79.282a2.38 2.38 0 0 1-2.457.053l-.088-.053-13.472-8.422c-1.198-.749-1.6-2.39-.897-3.667.688-1.249 2.177-1.685 3.363-1.003l.079.047 12.2 7.627 12.199-7.627c1.171-.732 2.672-.339 3.394.874l.047.082c.688 1.249.318 2.847-.82 3.617l-.076.05-13.472 8.422z"/>
        </g>
        <g fill="#302361" fill-rule="nonzero">
            <path d="M11.951 26.462c2.119 0 3.94.358 5.466 1.073 1.525.716 2.703 1.744 3.533 3.083.83 1.34 1.245 2.951 1.245 4.833 0 1.882-.415 3.493-1.245 4.833-.83 1.34-2.008 2.368-3.533 3.083-1.525.716-3.347 1.074-5.466 1.074H6.075v9.855H.25V26.462h11.702zm-.923 13.374c1.766 0 3.08-.372 3.943-1.114.862-.743 1.293-1.833 1.293-3.27 0-1.455-.43-2.55-1.293-3.284s-2.177-1.1-3.943-1.1H6.075v8.768h4.953zM39.787 26.462c3.14 0 5.609.76 7.41 2.281 1.8 1.521 2.7 3.564 2.7 6.13 0 2.716-.897 4.8-2.69 6.25-1.793 1.45-4.26 2.176-7.398 2.176l-.551.323h-5.999v10.674h-5.746V26.462h12.274zm-.667 12.747c1.633 0 2.85-.33 3.648-.988.799-.658 1.198-1.683 1.198-3.075 0-1.381-.4-2.404-1.198-3.067-.799-.664-2.015-.996-3.648-.996h-5.86v8.126h5.86zm3.414 1.203 9.002 13.884h-6.538L37.56 42.108l4.973-1.696zM56.199 54.296V26.462h20.889v4.701H62.025v6.884h11.862v4.492H62.025v7.055h15.647v4.702zM94.614 26.462c2.119 0 3.941.358 5.466 1.073 1.526.716 2.703 1.744 3.533 3.083.83 1.34 1.245 2.951 1.245 4.833 0 1.882-.415 3.493-1.245 4.833-.83 1.34-2.007 2.368-3.533 3.083-1.525.716-3.347 1.074-5.466 1.074h-5.876v9.855h-5.825V26.462h11.701zm-.922 13.374c1.765 0 3.08-.372 3.942-1.114.862-.743 1.294-1.833 1.294-3.27 0-1.455-.432-2.55-1.294-3.284-.863-.734-2.177-1.1-3.942-1.1h-4.954v8.768h4.954zM133.228 54.296h-6.036l-2.311-6.805H114.21l-2.327 6.805h-5.915l10.15-27.834h6.971l10.14 27.834zM115.53 43.207h8.048l-4.03-12.167-4.018 12.167zM140.52 32.667c-1.197 0-2.091-.261-2.684-.784-.592-.522-.888-1.297-.888-2.323 0-1.037.296-1.814.888-2.331.593-.518 1.487-.777 2.684-.777s2.092.26 2.684.777c.592.517.888 1.294.888 2.331 0 1.026-.296 1.8-.888 2.323-.592.523-1.487.784-2.684.784zm2.89 2.61v19.019h-5.779v-19.02h5.778zM162.365 26.462c3.138 0 5.608.76 7.409 2.281 1.8 1.521 2.7 3.564 2.7 6.13 0 2.716-.896 4.8-2.69 6.25-1.793 1.45-4.259 2.176-7.398 2.176l-.551.323h-5.999v10.674h-5.746V26.462h12.275zm-.667 12.747c1.633 0 2.849-.33 3.647-.988.8-.658 1.199-1.683 1.199-3.075 0-1.381-.4-2.404-1.199-3.067-.798-.664-2.014-.996-3.647-.996h-5.862v8.126h5.862zm3.414 1.203 9.001 13.884h-6.538l-7.436-12.188 4.973-1.696zM178.776 54.296V26.462h20.889v4.701h-15.063v6.884h11.862v4.492h-11.862v7.055h15.647v4.702z"/>
        </g>
    </g>
</svg>
