<?xml version="1.0" encoding="utf-8"?>
<!-- Generator: Adobe Illustrator 25.4.1, SVG Export Plug-In . SVG Version: 6.00 Build 0)  -->
<svg version="1.1" id="Слой_1" xmlns="http://www.w3.org/2000/svg" xmlns:xlink="http://www.w3.org/1999/xlink" x="0px" y="0px"
	 viewBox="0 0 799.5 223" style="enable-background:new 0 0 799.5 223;" xml:space="preserve">
<style type="text/css">
	.st0{fill:#434242;}
	.st1{fill:#5498EE;}
</style>
<path class="st0" d="M112.6,123.2c0,14.9-4.4,27.6-13.1,38.1c-8.7,10.5-20.4,15.8-35.1,15.8c-6.2,0-12.1-1.3-17.7-3.8
	c-5.6-2.5-9.9-5.9-13-10.3h-0.4v60H0V73h31.7v12.4h0.6c3.3-4.5,7.7-8.1,13.3-11c5.6-2.8,12-4.3,19-4.3c14.2,0,25.8,5.2,34.7,15.5
	C108.2,96.1,112.6,108.6,112.6,123.2 M80.3,123.2c0-7-2.1-13.1-6.3-18.2c-4.2-5.1-10-7.6-17.5-7.6c-7.2,0-13,2.6-17.6,7.9
	c-4.5,5.3-6.8,11.3-6.8,18.1c0,6.9,2.3,13,6.8,18.2c4.5,5.2,10.4,7.8,17.6,7.8c7.5,0,13.3-2.6,17.5-7.7
	C78.2,136.5,80.3,130.4,80.3,123.2"/>
<path class="st0" d="M188.4,70.9l-1.4,29.3c-2.6-0.7-5.4-1-8.5-1c-8,0-14,2.5-17.9,7.4c-3.9,4.9-5.9,10.1-5.9,15.5v52h-33.3V73h32.1
	v14.6h0.4c2.6-5.3,6.3-9.5,11.2-12.7c4.9-3.2,10.3-4.8,16.3-4.8C184.6,70.1,186.9,70.4,188.4,70.9"/>
<path class="st0" d="M286.4,124.8c0,3.7-0.1,6.3-0.2,7.9h-73.4c0.5,5.4,3.2,10,7.9,13.6c4.7,3.7,10.2,5.5,16.3,5.5
	c9.8,0,17.2-3.5,22.4-10.6l23.2,14.6c-9.9,14.4-25.2,21.5-45.9,21.5c-15.9,0-29.1-4.8-39.7-14.3c-10.6-9.6-16-22.6-16-39.1
	c0-16.3,5.2-29.4,15.5-39.3c10.4-10,23.4-14.9,39.1-14.9c15.2,0,27.4,4.9,36.8,14.7C281.7,94.3,286.4,107.7,286.4,124.8 M212.8,112
	h42.9c0-5.6-1.7-10.2-5.2-13.8s-8.4-5.5-14.7-5.5c-6.2,0-11.5,1.9-15.9,5.7C215.6,102.2,213.2,106.7,212.8,112"/>
<path class="st0" d="M407.5,123.2c0,14.9-4.4,27.6-13.1,38.1c-8.7,10.5-20.4,15.8-35.1,15.8c-6.2,0-12.1-1.3-17.7-3.8
	c-5.6-2.5-9.9-5.9-13-10.3h-0.4v60h-33.3V73h31.7v12.4h0.6c3.3-4.5,7.7-8.1,13.3-11c5.6-2.8,12-4.3,19-4.3
	c14.2,0,25.8,5.2,34.7,15.5C403.1,96.1,407.5,108.6,407.5,123.2 M375.2,123.2c0-7-2.1-13.1-6.3-18.2c-4.2-5.1-10-7.6-17.5-7.6
	c-7.2,0-13,2.6-17.6,7.9c-4.5,5.3-6.8,11.3-6.8,18.1c0,6.9,2.3,13,6.8,18.2c4.5,5.2,10.4,7.8,17.6,7.8c7.5,0,13.3-2.6,17.5-7.7
	C373.1,136.5,375.2,130.4,375.2,123.2"/>
<path class="st0" d="M431.7,104.9l-16.9-18.1C426.9,75.4,442,69.7,460,69.7c16.7,0,28.6,4.2,35.8,12.7c7.2,8.5,10.8,22.1,10.8,40.8
	v51H476v-10.8h-0.6c-2.4,4.1-6.3,7.3-11.6,9.7c-5.3,2.4-11,3.6-17.1,3.6c-6,0-11.6-0.9-16.8-2.7c-5.2-1.8-9.9-5.2-13.9-10.3
	c-4.1-5-6.1-11.2-6.1-18.7c0-22.8,21.7-34.1,65-34.1v-1.6c0-4.7-1.7-8.4-5.1-10.9c-3.4-2.5-7.8-3.8-13.2-3.8
	C447.5,94.5,439.2,98,431.7,104.9 M476,133.6v-3.5h-4.3c-20.7,0-31.1,4.6-31.1,13.8c0,3.5,1.4,6.1,4.3,7.8c2.8,1.7,6.2,2.5,10.2,2.5
	c6.6,0,11.8-1.9,15.4-5.6C474.2,145,476,139.9,476,133.6"/>
<rect x="519.5" y="73" class="st0" width="33.3" height="101.2"/>
<path class="st0" d="M634.2,70.9l-1.4,29.3c-2.6-0.7-5.4-1-8.5-1c-8,0-14,2.5-17.9,7.4c-3.9,4.9-5.9,10.1-5.9,15.5v52h-33.3V73h32.1
	v14.6h0.4c2.6-5.3,6.3-9.5,11.2-12.7c4.9-3.2,10.3-4.8,16.3-4.8C630.3,70.1,632.7,70.4,634.2,70.9"/>
<path class="st0" d="M732.1,124.8c0,3.7-0.1,6.3-0.2,7.9h-73.4c0.5,5.4,3.2,10,7.9,13.6c4.7,3.7,10.2,5.5,16.3,5.5
	c9.8,0,17.2-3.5,22.4-10.6l23.2,14.6c-9.9,14.4-25.2,21.5-45.9,21.5c-15.9,0-29.1-4.8-39.7-14.3c-10.6-9.6-16-22.6-16-39.1
	c0-16.3,5.2-29.4,15.5-39.3c10.4-10,23.4-14.9,39.1-14.9c15.2,0,27.4,4.9,36.8,14.7C727.5,94.3,732.1,107.7,732.1,124.8 M658.6,112
	h42.9c0-5.6-1.7-10.2-5.2-13.8s-8.4-5.5-14.7-5.5c-6.2,0-11.5,1.9-15.9,5.7C661.3,102.2,659,106.7,658.6,112"/>
<path class="st1" d="M795.7,26.6C794.9,10.7,781.4-0.7,766.5,0c-19.9,1-18.7,17.3-38.6,18.2c-19.9,1-20.3-15.4-40.2-14.4
	c-15.9,0.8-27.2,14.3-26.5,29.2c0.7,14.8,13.3,27.3,29.2,26.5c19.9-1,18.7-17.3,38.6-18.2c14.8-0.7,28.4,10.6,29.2,26.5
	c1,19.9-15.4,20.3-14.4,40.2c0.8,15.9,14.3,27.2,29.2,26.5c14.8-0.7,27.3-13.3,26.5-29.2c-1-19.9-17.3-18.7-18.2-38.6
	C780.3,46.8,796.6,46.5,795.7,26.6"/>
<path class="st1" d="M536.2,3.6c-15.4,0-28,12.5-28,28c0,15.4,12.5,28,28,28c15.4,0,28-12.5,28-28C564.2,16.1,551.6,3.6,536.2,3.6"
	/>
</svg>
