<?xml version="1.0" encoding="utf-8"?>
<!-- Generator: Adobe Illustrator 25.4.1, SVG Export Plug-In . SVG Version: 6.00 Build 0)  -->
<svg version="1.1" id="Слой_1" xmlns="http://www.w3.org/2000/svg" xmlns:xlink="http://www.w3.org/1999/xlink" x="0px" y="0px"
	 viewBox="0 0 27 63" style="enable-background:new 0 0 27 63;" xml:space="preserve">
<style type="text/css">
	.st0{fill:#5498ef;}
</style>
<path class="st0" d="M20.5,63H6.5L4.7,42.7C2,42.2,0,39.8,0,37v-9.9c0-5.9,4.8-10.6,10.6-10.6h5.8C22.3,16.5,27,21.2,27,27v10.5
	c0,2.8-2,5.1-4.7,5.5L20.5,63z M8.4,61h10.3l1.7-18.6c0.1-0.8,0.7-1.3,1.4-1.4c1.8-0.2,3.2-1.7,3.2-3.5V27c0-4.7-3.8-8.5-8.5-8.5
	h-5.8c-4.8,0-8.6,3.9-8.6,8.6V37c0,1.9,1.4,3.5,3.3,3.8c0.7,0.1,1.3,0.7,1.4,1.4L8.4,61z"/>
<path class="st0" d="M13.5,13.9c-3.9,0-7-3.1-7-7s3.1-7,7-7c3.9,0,7,3.1,7,7S17.4,13.9,13.5,13.9z M13.5,2c-2.8,0-5,2.2-5,5
	c0,2.7,2.2,5,5,5s5-2.2,5-5C18.5,4.2,16.3,2,13.5,2z"/>
</svg>
